<svg xmlns="http://www.w3.org/2000/svg" xmlns:xlink="http://www.w3.org/1999/xlink" width="1080" zoomAndPan="magnify" viewBox="0 0 810 1012.49997" height="1350" preserveAspectRatio="xMidYMid meet" version="1.0"><defs><clipPath id="3e3e05cfd0"><path d="M 0.199219 0 L 809.800781 0 L 809.800781 1012 L 0.199219 1012 Z M 0.199219 0 " clip-rule="nonzero"/></clipPath><clipPath id="db5b030f73"><path d="M 217.007812 318.007812 L 593.320312 318.007812 L 593.320312 694.320312 L 217.007812 694.320312 Z M 217.007812 318.007812 " clip-rule="nonzero"/></clipPath></defs><g clip-path="url(#3e3e05cfd0)"><path fill="#ffffff" d="M 0.199219 0 L 809.800781 0 L 809.800781 1019.496094 L 0.199219 1019.496094 Z M 0.199219 0 " fill-opacity="1" fill-rule="nonzero"/><path fill="#ffffff" d="M 0.199219 0 L 809.800781 0 L 809.800781 1012 L 0.199219 1012 Z M 0.199219 0 " fill-opacity="1" fill-rule="nonzero"/><path fill="#ffffff" d="M 0.199219 0 L 809.800781 0 L 809.800781 1012 L 0.199219 1012 Z M 0.199219 0 " fill-opacity="1" fill-rule="nonzero"/></g><g clip-path="url(#db5b030f73)"><path fill="#e8c6b6" d="M 405.082031 351.9375 C 455.296875 351.9375 461.234375 352.101562 481.105469 353.007812 C 499.410156 353.832031 509.386719 356.882812 516.0625 359.523438 C 524.804688 362.902344 531.070312 367.027344 537.667969 373.621094 C 544.261719 380.21875 548.304688 386.484375 551.765625 395.226562 C 554.320312 401.820312 557.371094 411.796875 558.28125 430.183594 C 559.1875 450.054688 559.351562 455.992188 559.351562 506.207031 C 559.351562 556.421875 559.1875 562.355469 558.28125 582.226562 C 557.457031 600.53125 554.40625 610.507812 551.765625 617.1875 C 548.386719 625.929688 544.261719 632.195312 537.667969 638.789062 C 531.070312 645.386719 524.804688 649.425781 516.0625 652.890625 C 509.46875 655.445312 499.492188 658.496094 481.105469 659.402344 C 461.234375 660.308594 455.296875 660.476562 405.082031 660.476562 C 354.867188 660.476562 348.933594 660.308594 329.0625 659.402344 C 310.757812 658.578125 300.78125 655.527344 294.101562 652.890625 C 285.359375 649.507812 279.09375 645.386719 272.5 638.789062 C 265.902344 632.195312 261.863281 625.929688 258.398438 617.1875 C 255.84375 610.589844 252.792969 600.613281 251.886719 582.226562 C 250.976562 562.355469 250.8125 556.421875 250.8125 506.207031 C 250.8125 455.992188 250.976562 450.054688 251.886719 430.183594 C 252.710938 411.878906 255.761719 401.902344 258.398438 395.226562 C 261.78125 386.484375 265.902344 380.21875 272.5 373.621094 C 279.09375 367.027344 285.359375 362.984375 294.101562 359.523438 C 300.699219 356.96875 310.675781 353.917969 329.0625 353.007812 C 348.933594 352.101562 354.867188 351.9375 405.082031 351.9375 M 405.082031 318.050781 C 353.960938 318.050781 347.613281 318.296875 327.496094 319.203125 C 307.457031 320.109375 293.769531 323.328125 281.816406 327.945312 C 269.449219 332.726562 258.976562 339.15625 248.503906 349.628906 C 238.117188 360.101562 231.683594 370.570312 226.902344 382.941406 C 222.285156 394.894531 219.070312 408.582031 218.164062 428.617188 C 217.253906 448.65625 217.007812 455.085938 217.007812 506.125 C 217.007812 557.246094 217.253906 563.59375 218.164062 583.710938 C 219.070312 603.746094 222.285156 617.433594 226.902344 629.390625 C 231.683594 641.757812 238.117188 652.230469 248.585938 662.703125 C 259.058594 673.171875 269.53125 679.605469 281.898438 684.386719 C 293.855469 689.003906 307.542969 692.21875 327.578125 693.125 C 347.613281 694.035156 354.042969 694.28125 405.164062 694.28125 C 456.285156 694.28125 462.632812 694.035156 482.753906 693.125 C 502.789062 692.21875 516.476562 689.003906 528.433594 684.386719 C 540.800781 679.605469 551.269531 673.171875 561.742188 662.703125 C 572.214844 652.230469 578.644531 641.757812 583.429688 629.390625 C 588.046875 617.433594 591.261719 603.746094 592.167969 583.710938 C 593.074219 563.675781 593.320312 557.246094 593.320312 506.125 C 593.320312 455.003906 593.074219 448.65625 592.167969 428.535156 C 591.261719 408.5 588.046875 394.8125 583.429688 382.855469 C 578.644531 370.488281 572.214844 360.019531 561.742188 349.546875 C 551.269531 339.074219 540.800781 332.644531 528.433594 327.859375 C 516.476562 323.242188 502.789062 320.027344 482.753906 319.121094 C 462.632812 318.296875 456.203125 318.050781 405.082031 318.050781 " fill-opacity="1" fill-rule="nonzero"/></g><path fill="#e8c6b6" d="M 405.082031 409.570312 C 351.734375 409.570312 308.53125 452.777344 308.53125 506.125 C 308.53125 559.472656 351.816406 602.757812 405.164062 602.757812 C 458.511719 602.757812 501.800781 559.554688 501.800781 506.125 C 501.71875 452.777344 458.429688 409.570312 405.082031 409.570312 M 405.082031 568.871094 C 370.453125 568.871094 342.417969 540.835938 342.417969 506.207031 C 342.417969 471.578125 370.453125 443.542969 405.082031 443.542969 C 439.710938 443.542969 467.746094 471.578125 467.746094 506.207031 C 467.828125 540.753906 439.710938 568.871094 405.082031 568.871094 " fill-opacity="1" fill-rule="nonzero"/><path fill="#e8c6b6" d="M 528.101562 405.777344 C 528.101562 418.230469 517.960938 428.371094 505.511719 428.371094 C 493.058594 428.371094 482.917969 418.230469 482.917969 405.777344 C 482.917969 393.328125 493.058594 383.1875 505.511719 383.1875 C 517.960938 383.1875 528.101562 393.246094 528.101562 405.777344 " fill-opacity="1" fill-rule="nonzero"/></svg>