<svg xmlns="http://www.w3.org/2000/svg" xmlns:xlink="http://www.w3.org/1999/xlink" width="100" zoomAndPan="magnify" viewBox="0 0 75 74.999997" height="100" preserveAspectRatio="xMidYMid meet" version="1.0"><path fill="#e8c6b6" d="M 56.144531 0.03125 L 18.792969 0.03125 C 8.445312 0.03125 0 8.476562 0 18.824219 L 0 56.234375 C 0 66.523438 8.445312 74.96875 18.792969 74.96875 L 56.207031 74.96875 C 66.554688 74.96875 75 66.523438 75 56.175781 L 75 18.824219 C 74.941406 8.476562 66.496094 0.03125 56.144531 0.03125 Z M 24.980469 60.695312 L 14.273438 60.695312 L 14.273438 29.769531 L 24.980469 29.769531 Z M 19.566406 25.011719 C 16.535156 25.011719 14.097656 22.570312 14.097656 19.539062 C 14.097656 16.503906 16.535156 14.066406 19.566406 14.066406 C 22.601562 14.066406 25.039062 16.503906 25.039062 19.539062 C 24.980469 22.570312 22.542969 25.011719 19.566406 25.011719 Z M 60.667969 60.695312 L 51.746094 60.695312 L 51.746094 45.707031 C 51.746094 42.078125 51.269531 37.441406 46.332031 37.441406 C 41.277344 37.441406 40.445312 41.367188 40.445312 45.46875 L 40.445312 60.695312 L 31.523438 60.695312 L 31.523438 29.769531 L 39.847656 29.769531 L 39.847656 33.929688 L 40.085938 33.929688 C 41.394531 31.550781 44.429688 29.707031 49.1875 29.707031 C 59 29.707031 60.726562 35.359375 60.726562 43.746094 L 60.726562 60.695312 Z M 60.667969 60.695312 " fill-opacity="1" fill-rule="nonzero"/></svg>