<svg xmlns="http://www.w3.org/2000/svg" xmlns:xlink="http://www.w3.org/1999/xlink" width="726" zoomAndPan="magnify" viewBox="0 0 544.5 453.749987" height="605" preserveAspectRatio="xMidYMid meet" version="1.0"><defs><clipPath id="5eba6e7b33"><path d="M 0 12 L 544 12 L 544 453.417969 L 0 453.417969 Z M 0 12 " clip-rule="nonzero"/></clipPath></defs><g clip-path="url(#5eba6e7b33)"><path fill="#000000" d="M 488.261719 122.019531 C 488.589844 126.8125 488.589844 131.609375 488.589844 136.4375 C 488.589844 283.828125 376.46875 453.800781 171.464844 453.800781 L 171.464844 453.714844 C 110.898438 453.8125 51.597656 436.457031 0.617188 403.71875 C 9.417969 404.773438 18.273438 405.304688 27.148438 405.328125 C 77.335938 405.371094 126.089844 388.515625 165.574219 357.484375 C 117.875 356.582031 76.054688 325.460938 61.441406 280.019531 C 78.152344 283.25 95.363281 282.585938 111.757812 278.097656 C 59.757812 267.582031 22.347656 221.859375 22.347656 168.761719 C 22.347656 168.273438 22.347656 167.816406 22.347656 167.351562 C 37.839844 175.984375 55.191406 180.777344 72.9375 181.3125 C 23.964844 148.570312 8.875 83.375 38.449219 32.386719 C 95.035156 102.078125 178.527344 144.441406 268.152344 148.917969 C 259.167969 110.175781 271.445312 69.585938 300.402344 42.347656 C 345.296875 0.117188 415.902344 2.28125 458.101562 47.1875 C 483.058594 42.261719 506.984375 33.09375 528.878906 20.113281 C 520.554688 45.9375 503.148438 67.867188 479.886719 81.796875 C 501.976562 79.1875 523.566406 73.273438 543.894531 64.238281 C 528.921875 86.679688 510.070312 106.230469 488.261719 122.019531 Z M 488.261719 122.019531 " fill-opacity="1" fill-rule="nonzero"/></g></svg>