<svg xmlns="http://www.w3.org/2000/svg" xmlns:xlink="http://www.w3.org/1999/xlink" width="500" zoomAndPan="magnify" viewBox="0 0 375 149.999998" height="200" preserveAspectRatio="xMidYMid meet" version="1.0"><defs><g/><clipPath id="e3a4a700db"><path d="M 15 11.203125 L 63 11.203125 L 63 112 L 15 112 Z M 15 11.203125 " clip-rule="nonzero"/></clipPath><clipPath id="6dc4710cf2"><path d="M 28.332031 44.453125 L 76 44.453125 L 76 144.667969 L 28.332031 144.667969 Z M 28.332031 44.453125 " clip-rule="nonzero"/></clipPath><clipPath id="1f96ca295b"><path d="M 12 10.261719 L 61 10.261719 L 61 111 L 12 111 Z M 12 10.261719 " clip-rule="nonzero"/></clipPath><clipPath id="bdefa66c65"><path d="M 25.511719 43.515625 L 73.289062 43.515625 L 73.289062 143.726562 L 25.511719 143.726562 Z M 25.511719 43.515625 " clip-rule="nonzero"/></clipPath></defs><path fill="#ffacb7" d="M 39.339844 38.160156 C 43.203125 31.878906 44.910156 24.339844 37.613281 19.246094 C 42.101562 23.910156 38.554688 31.703125 34.019531 37.804688 C 30.167969 42.96875 25.113281 46.925781 20.820312 51.695312 C 14.296875 58.964844 9.117188 67.714844 14.609375 75.230469 C 12.089844 68.503906 17.605469 61.007812 23.875 54.585938 C 29.164062 49.183594 35.324219 44.671875 39.339844 38.160156 " fill-opacity="1" fill-rule="evenodd"/><g clip-path="url(#e3a4a700db)"><path fill="#ffa0a3" d="M 52.074219 11.230469 C 70.605469 29.144531 41.753906 49.523438 30.132812 62.1875 C 14.015625 79.75 6.160156 101.984375 33.375 111.410156 C 17.316406 100.566406 25.078125 81.777344 39.085938 66.519531 C 50.992188 53.539062 77.996094 32.808594 52.074219 11.230469 " fill-opacity="1" fill-rule="evenodd"/></g><path fill="#ffacb7" d="M 52.066406 117.738281 C 48.207031 124.019531 46.5 131.5625 53.796875 136.660156 C 49.308594 131.988281 52.851562 124.195312 57.390625 118.09375 C 61.242188 112.929688 66.289062 108.972656 70.585938 104.203125 C 77.113281 96.933594 82.296875 88.1875 76.804688 80.667969 C 79.320312 87.394531 73.804688 94.890625 67.527344 101.3125 C 62.246094 106.722656 56.085938 111.226562 52.066406 117.738281 " fill-opacity="1" fill-rule="evenodd"/><g clip-path="url(#6dc4710cf2)"><path fill="#ffa0a3" d="M 39.335938 144.667969 C 20.796875 126.757812 49.652344 106.375 61.273438 93.707031 C 77.386719 76.148438 85.25 53.914062 58.027344 44.488281 C 74.09375 55.332031 66.324219 74.125 52.320312 89.378906 C 40.414062 102.359375 13.414062 123.089844 39.335938 144.667969 " fill-opacity="1" fill-rule="evenodd"/></g><path fill="#35d5d0" d="M 36.519531 37.21875 C 40.382812 30.941406 42.089844 23.398438 34.792969 18.304688 C 39.28125 22.972656 35.734375 30.765625 31.199219 36.863281 C 27.347656 42.027344 22.292969 45.984375 18 50.753906 C 11.476562 58.027344 6.296875 66.777344 11.789062 74.289062 C 9.269531 67.5625 14.785156 60.066406 21.054688 53.644531 C 26.34375 48.242188 32.503906 43.730469 36.519531 37.21875 " fill-opacity="1" fill-rule="evenodd"/><g clip-path="url(#1f96ca295b)"><path fill="#00c2cb" d="M 49.253906 10.292969 C 67.785156 28.203125 38.933594 48.582031 27.316406 61.25 C 11.195312 78.808594 3.339844 101.042969 30.554688 110.46875 C 14.496094 99.625 22.261719 80.839844 36.265625 65.582031 C 48.171875 52.597656 75.175781 31.867188 49.253906 10.292969 " fill-opacity="1" fill-rule="evenodd"/></g><path fill="#35d5d0" d="M 49.246094 116.796875 C 45.386719 123.078125 43.679688 130.625 50.976562 135.71875 C 46.488281 131.046875 50.03125 123.257812 54.570312 117.15625 C 58.421875 111.988281 63.46875 108.03125 67.765625 103.261719 C 74.292969 95.992188 79.476562 87.246094 73.984375 79.730469 C 76.5 86.453125 70.984375 93.949219 64.710938 100.375 C 59.425781 105.78125 53.265625 110.285156 49.246094 116.796875 " fill-opacity="1" fill-rule="evenodd"/><g clip-path="url(#bdefa66c65)"><path fill="#00c2cb" d="M 36.515625 143.726562 C 17.976562 125.820312 46.832031 105.433594 58.453125 92.769531 C 74.566406 75.207031 82.429688 52.972656 55.207031 43.546875 C 71.273438 54.390625 63.503906 73.183594 49.5 88.4375 C 37.59375 101.417969 10.59375 122.148438 36.515625 143.726562 " fill-opacity="1" fill-rule="evenodd"/></g><g fill="#ffa0a3" fill-opacity="1"><g transform="translate(84.684015, 63.918147)"><g><path d="M 19.734375 -19.953125 C 20.253906 -19.953125 20.671875 -19.785156 20.984375 -19.453125 C 21.304688 -19.128906 21.46875 -18.695312 21.46875 -18.15625 L 21.46875 -1.515625 C 21.46875 -0.992188 21.316406 -0.582031 21.015625 -0.28125 C 20.722656 0.0195312 20.332031 0.171875 19.84375 0.171875 C 19.351562 0.171875 18.96875 0.0195312 18.6875 -0.28125 C 18.40625 -0.582031 18.265625 -0.992188 18.265625 -1.515625 L 18.265625 -13.09375 L 13.5 -4.046875 C 13.269531 -3.628906 13.023438 -3.320312 12.765625 -3.125 C 12.503906 -2.9375 12.191406 -2.84375 11.828125 -2.84375 C 11.472656 -2.84375 11.164062 -2.9375 10.90625 -3.125 C 10.644531 -3.3125 10.398438 -3.617188 10.171875 -4.046875 L 5.375 -12.953125 L 5.375 -1.515625 C 5.375 -1.015625 5.226562 -0.609375 4.9375 -0.296875 C 4.644531 0.015625 4.253906 0.171875 3.765625 0.171875 C 3.273438 0.171875 2.890625 0.0195312 2.609375 -0.28125 C 2.328125 -0.582031 2.1875 -0.992188 2.1875 -1.515625 L 2.1875 -18.15625 C 2.1875 -18.695312 2.34375 -19.128906 2.65625 -19.453125 C 2.96875 -19.785156 3.382812 -19.953125 3.90625 -19.953125 C 4.632812 -19.953125 5.207031 -19.550781 5.625 -18.75 L 11.859375 -6.859375 L 18.078125 -18.75 C 18.484375 -19.550781 19.035156 -19.953125 19.734375 -19.953125 Z M 19.734375 -19.953125 "/></g></g></g><g fill="#ffa0a3" fill-opacity="1"><g transform="translate(111.684505, 63.918147)"><g><path d="M 20.09375 -2.171875 C 20.207031 -1.921875 20.265625 -1.675781 20.265625 -1.4375 C 20.265625 -1 20.09375 -0.628906 19.75 -0.328125 C 19.40625 -0.0351562 19.003906 0.109375 18.546875 0.109375 C 18.253906 0.109375 17.972656 0.03125 17.703125 -0.125 C 17.441406 -0.28125 17.238281 -0.53125 17.09375 -0.875 L 15.40625 -4.640625 L 5.515625 -4.640625 L 3.828125 -0.875 C 3.671875 -0.53125 3.460938 -0.28125 3.203125 -0.125 C 2.941406 0.03125 2.648438 0.109375 2.328125 0.109375 C 1.898438 0.109375 1.507812 -0.0351562 1.15625 -0.328125 C 0.800781 -0.628906 0.625 -1 0.625 -1.4375 C 0.625 -1.675781 0.675781 -1.921875 0.78125 -2.171875 L 8.546875 -18.828125 C 8.710938 -19.203125 8.96875 -19.488281 9.3125 -19.6875 C 9.664062 -19.882812 10.035156 -19.984375 10.421875 -19.984375 C 10.816406 -19.984375 11.1875 -19.882812 11.53125 -19.6875 C 11.882812 -19.488281 12.144531 -19.203125 12.3125 -18.828125 Z M 6.75 -7.453125 L 14.171875 -7.453125 L 10.453125 -15.796875 Z M 6.75 -7.453125 "/></g></g></g><g fill="#ffa0a3" fill-opacity="1"><g transform="translate(135.903645, 63.918147)"><g><path d="M 17.984375 -2.28125 C 18.210938 -1.9375 18.328125 -1.609375 18.328125 -1.296875 C 18.328125 -0.859375 18.148438 -0.5 17.796875 -0.21875 C 17.453125 0.0625 17.046875 0.203125 16.578125 0.203125 C 16.285156 0.203125 16 0.132812 15.71875 0 C 15.445312 -0.144531 15.21875 -0.359375 15.03125 -0.640625 L 11.296875 -6.328125 C 10.921875 -6.921875 10.519531 -7.335938 10.09375 -7.578125 C 9.675781 -7.828125 9.128906 -7.953125 8.453125 -7.953125 L 5.703125 -7.953125 L 5.703125 -1.65625 C 5.703125 -1.09375 5.539062 -0.644531 5.21875 -0.3125 C 4.90625 0.0078125 4.476562 0.171875 3.9375 0.171875 C 3.394531 0.171875 2.957031 0.0078125 2.625 -0.3125 C 2.300781 -0.644531 2.140625 -1.09375 2.140625 -1.65625 L 2.140625 -18.109375 C 2.140625 -18.648438 2.289062 -19.066406 2.59375 -19.359375 C 2.90625 -19.660156 3.332031 -19.8125 3.875 -19.8125 L 10.90625 -19.8125 C 13.15625 -19.8125 14.863281 -19.3125 16.03125 -18.3125 C 17.207031 -17.3125 17.796875 -15.863281 17.796875 -13.96875 C 17.796875 -12.4375 17.359375 -11.175781 16.484375 -10.1875 C 15.609375 -9.207031 14.378906 -8.578125 12.796875 -8.296875 C 13.335938 -8.160156 13.8125 -7.921875 14.21875 -7.578125 C 14.632812 -7.242188 15.039062 -6.78125 15.4375 -6.1875 Z M 10.40625 -10.734375 C 11.769531 -10.734375 12.769531 -10.988281 13.40625 -11.5 C 14.039062 -12.019531 14.359375 -12.816406 14.359375 -13.890625 C 14.359375 -14.972656 14.039062 -15.757812 13.40625 -16.25 C 12.769531 -16.75 11.769531 -17 10.40625 -17 L 5.671875 -17 L 5.671875 -10.734375 Z M 10.40625 -10.734375 "/></g></g></g><g fill="#ffa0a3" fill-opacity="1"><g transform="translate(158.802336, 63.918147)"><g><path d="M 17.515625 -2.734375 C 17.890625 -2.367188 18.078125 -1.960938 18.078125 -1.515625 C 18.078125 -1.085938 17.910156 -0.707031 17.578125 -0.375 C 17.253906 -0.0507812 16.867188 0.109375 16.421875 0.109375 C 15.953125 0.109375 15.519531 -0.0859375 15.125 -0.484375 L 5.765625 -9.25 L 5.765625 -1.65625 C 5.765625 -1.113281 5.597656 -0.671875 5.265625 -0.328125 C 4.941406 0.00390625 4.5 0.171875 3.9375 0.171875 C 3.394531 0.171875 2.957031 0.00390625 2.625 -0.328125 C 2.300781 -0.671875 2.140625 -1.113281 2.140625 -1.65625 L 2.140625 -18.15625 C 2.140625 -18.695312 2.300781 -19.128906 2.625 -19.453125 C 2.957031 -19.785156 3.394531 -19.953125 3.9375 -19.953125 C 4.5 -19.953125 4.941406 -19.785156 5.265625 -19.453125 C 5.597656 -19.128906 5.765625 -18.695312 5.765625 -18.15625 L 5.765625 -10.9375 L 14.8125 -19.421875 C 15.144531 -19.753906 15.53125 -19.921875 15.96875 -19.921875 C 16.394531 -19.921875 16.769531 -19.757812 17.09375 -19.4375 C 17.425781 -19.113281 17.59375 -18.734375 17.59375 -18.296875 C 17.59375 -17.867188 17.40625 -17.476562 17.03125 -17.125 L 9.46875 -10.203125 Z M 17.515625 -2.734375 "/></g></g></g><g fill="#ffa0a3" fill-opacity="1"><g transform="translate(180.717735, 63.918147)"><g><path d="M 3.875 0 C 3.332031 0 2.90625 -0.148438 2.59375 -0.453125 C 2.289062 -0.753906 2.140625 -1.175781 2.140625 -1.71875 L 2.140625 -18.109375 C 2.140625 -18.648438 2.289062 -19.066406 2.59375 -19.359375 C 2.90625 -19.660156 3.332031 -19.8125 3.875 -19.8125 L 14.03125 -19.8125 C 14.570312 -19.8125 14.988281 -19.691406 15.28125 -19.453125 C 15.582031 -19.210938 15.734375 -18.863281 15.734375 -18.40625 C 15.734375 -17.9375 15.582031 -17.578125 15.28125 -17.328125 C 14.988281 -17.078125 14.570312 -16.953125 14.03125 -16.953125 L 5.671875 -16.953125 L 5.671875 -11.5 L 13.46875 -11.5 C 14.007812 -11.5 14.425781 -11.375 14.71875 -11.125 C 15.019531 -10.882812 15.171875 -10.53125 15.171875 -10.0625 C 15.171875 -9.613281 15.019531 -9.265625 14.71875 -9.015625 C 14.425781 -8.773438 14.007812 -8.65625 13.46875 -8.65625 L 5.671875 -8.65625 L 5.671875 -2.859375 L 14.03125 -2.859375 C 14.570312 -2.859375 14.988281 -2.734375 15.28125 -2.484375 C 15.582031 -2.234375 15.734375 -1.875 15.734375 -1.40625 C 15.734375 -0.957031 15.582031 -0.609375 15.28125 -0.359375 C 14.988281 -0.117188 14.570312 0 14.03125 0 Z M 3.875 0 "/></g></g></g><g fill="#ffa0a3" fill-opacity="1"><g transform="translate(200.638421, 63.918147)"><g><path d="M 8.625 0.140625 C 8.0625 0.140625 7.613281 -0.0195312 7.28125 -0.34375 C 6.957031 -0.675781 6.796875 -1.113281 6.796875 -1.65625 L 6.796875 -16.84375 L 1.6875 -16.84375 C 0.5625 -16.84375 0 -17.335938 0 -18.328125 C 0 -19.316406 0.5625 -19.8125 1.6875 -19.8125 L 15.546875 -19.8125 C 16.671875 -19.8125 17.234375 -19.316406 17.234375 -18.328125 C 17.234375 -17.335938 16.671875 -16.84375 15.546875 -16.84375 L 10.421875 -16.84375 L 10.421875 -1.65625 C 10.421875 -1.113281 10.253906 -0.675781 9.921875 -0.34375 C 9.597656 -0.0195312 9.164062 0.140625 8.625 0.140625 Z M 8.625 0.140625 "/></g></g></g><g fill="#ffa0a3" fill-opacity="1"><g transform="translate(221.233375, 63.918147)"><g><path d="M 3.9375 0.171875 C 3.394531 0.171875 2.957031 0.00390625 2.625 -0.328125 C 2.300781 -0.671875 2.140625 -1.113281 2.140625 -1.65625 L 2.140625 -18.15625 C 2.140625 -18.695312 2.300781 -19.128906 2.625 -19.453125 C 2.957031 -19.785156 3.394531 -19.953125 3.9375 -19.953125 C 4.5 -19.953125 4.941406 -19.785156 5.265625 -19.453125 C 5.597656 -19.128906 5.765625 -18.695312 5.765625 -18.15625 L 5.765625 -1.65625 C 5.765625 -1.113281 5.597656 -0.671875 5.265625 -0.328125 C 4.941406 0.00390625 4.5 0.171875 3.9375 0.171875 Z M 3.9375 0.171875 "/></g></g></g><g fill="#ffa0a3" fill-opacity="1"><g transform="translate(232.500993, 63.918147)"><g><path d="M 17.140625 -19.953125 C 17.671875 -19.953125 18.085938 -19.785156 18.390625 -19.453125 C 18.703125 -19.128906 18.859375 -18.695312 18.859375 -18.15625 L 18.859375 -1.65625 C 18.859375 -1.113281 18.695312 -0.671875 18.375 -0.328125 C 18.0625 0.00390625 17.648438 0.171875 17.140625 0.171875 C 16.546875 0.171875 16.085938 -0.046875 15.765625 -0.484375 L 5.515625 -13.828125 L 5.515625 -1.65625 C 5.515625 -1.113281 5.363281 -0.671875 5.0625 -0.328125 C 4.757812 0.00390625 4.347656 0.171875 3.828125 0.171875 C 3.296875 0.171875 2.878906 0.00390625 2.578125 -0.328125 C 2.285156 -0.671875 2.140625 -1.113281 2.140625 -1.65625 L 2.140625 -18.15625 C 2.140625 -18.695312 2.296875 -19.128906 2.609375 -19.453125 C 2.929688 -19.785156 3.351562 -19.953125 3.875 -19.953125 C 4.457031 -19.953125 4.910156 -19.738281 5.234375 -19.3125 L 15.453125 -6.015625 L 15.453125 -18.15625 C 15.453125 -18.695312 15.609375 -19.128906 15.921875 -19.453125 C 16.234375 -19.785156 16.640625 -19.953125 17.140625 -19.953125 Z M 17.140625 -19.953125 "/></g></g></g><g fill="#ffa0a3" fill-opacity="1"><g transform="translate(256.860607, 63.918147)"><g><path d="M 17.234375 -10.703125 C 17.660156 -10.703125 18.003906 -10.578125 18.265625 -10.328125 C 18.535156 -10.078125 18.671875 -9.742188 18.671875 -9.328125 L 18.671875 -3.28125 C 18.671875 -2.425781 18.554688 -1.816406 18.328125 -1.453125 C 18.097656 -1.097656 17.640625 -0.8125 16.953125 -0.59375 C 16.203125 -0.332031 15.328125 -0.128906 14.328125 0.015625 C 13.335938 0.171875 12.382812 0.25 11.46875 0.25 C 9.425781 0.25 7.65625 -0.148438 6.15625 -0.953125 C 4.65625 -1.765625 3.503906 -2.929688 2.703125 -4.453125 C 1.910156 -5.984375 1.515625 -7.804688 1.515625 -9.921875 C 1.515625 -12.003906 1.910156 -13.804688 2.703125 -15.328125 C 3.503906 -16.859375 4.632812 -18.03125 6.09375 -18.84375 C 7.5625 -19.65625 9.285156 -20.0625 11.265625 -20.0625 C 13.910156 -20.0625 16.078125 -19.351562 17.765625 -17.9375 C 17.992188 -17.726562 18.15625 -17.519531 18.25 -17.3125 C 18.351562 -17.101562 18.40625 -16.859375 18.40625 -16.578125 C 18.40625 -16.171875 18.289062 -15.828125 18.0625 -15.546875 C 17.84375 -15.265625 17.578125 -15.125 17.265625 -15.125 C 17.054688 -15.125 16.863281 -15.15625 16.6875 -15.21875 C 16.519531 -15.28125 16.328125 -15.390625 16.109375 -15.546875 C 15.285156 -16.128906 14.515625 -16.535156 13.796875 -16.765625 C 13.085938 -17.003906 12.285156 -17.125 11.390625 -17.125 C 9.347656 -17.125 7.804688 -16.519531 6.765625 -15.3125 C 5.722656 -14.101562 5.203125 -12.304688 5.203125 -9.921875 C 5.203125 -5.046875 7.335938 -2.609375 11.609375 -2.609375 C 12.878906 -2.609375 14.15625 -2.785156 15.4375 -3.140625 L 15.4375 -8.125 L 12.25 -8.125 C 11.800781 -8.125 11.453125 -8.234375 11.203125 -8.453125 C 10.953125 -8.679688 10.828125 -9.003906 10.828125 -9.421875 C 10.828125 -9.828125 10.953125 -10.140625 11.203125 -10.359375 C 11.453125 -10.585938 11.800781 -10.703125 12.25 -10.703125 Z M 17.234375 -10.703125 "/></g></g></g><g fill="#ffa0a3" fill-opacity="1"><g transform="translate(280.826892, 63.918147)"><g/></g></g><g fill="#ffa0a3" fill-opacity="1"><g transform="translate(291.813566, 63.918147)"><g><path d="M 10.984375 0.25 C 9.078125 0.25 7.40625 -0.160156 5.96875 -0.984375 C 4.539062 -1.804688 3.441406 -2.984375 2.671875 -4.515625 C 1.898438 -6.054688 1.515625 -7.859375 1.515625 -9.921875 C 1.515625 -11.984375 1.898438 -13.773438 2.671875 -15.296875 C 3.441406 -16.828125 4.539062 -18.003906 5.96875 -18.828125 C 7.40625 -19.648438 9.078125 -20.0625 10.984375 -20.0625 C 12.222656 -20.0625 13.382812 -19.878906 14.46875 -19.515625 C 15.5625 -19.148438 16.53125 -18.625 17.375 -17.9375 C 17.613281 -17.75 17.78125 -17.550781 17.875 -17.34375 C 17.96875 -17.132812 18.015625 -16.878906 18.015625 -16.578125 C 18.015625 -16.171875 17.898438 -15.828125 17.671875 -15.546875 C 17.453125 -15.265625 17.179688 -15.125 16.859375 -15.125 C 16.484375 -15.125 16.101562 -15.253906 15.71875 -15.515625 C 14.90625 -16.117188 14.148438 -16.535156 13.453125 -16.765625 C 12.765625 -17.003906 12 -17.125 11.15625 -17.125 C 9.207031 -17.125 7.734375 -16.515625 6.734375 -15.296875 C 5.734375 -14.078125 5.234375 -12.285156 5.234375 -9.921875 C 5.234375 -7.546875 5.734375 -5.75 6.734375 -4.53125 C 7.734375 -3.3125 9.207031 -2.703125 11.15625 -2.703125 C 11.96875 -2.703125 12.710938 -2.820312 13.390625 -3.0625 C 14.078125 -3.300781 14.851562 -3.710938 15.71875 -4.296875 C 15.90625 -4.410156 16.09375 -4.503906 16.28125 -4.578125 C 16.46875 -4.648438 16.660156 -4.6875 16.859375 -4.6875 C 17.179688 -4.6875 17.453125 -4.546875 17.671875 -4.265625 C 17.898438 -3.984375 18.015625 -3.640625 18.015625 -3.234375 C 18.015625 -2.953125 17.96875 -2.703125 17.875 -2.484375 C 17.78125 -2.273438 17.613281 -2.078125 17.375 -1.890625 C 16.53125 -1.191406 15.5625 -0.660156 14.46875 -0.296875 C 13.382812 0.0664062 12.222656 0.25 10.984375 0.25 Z M 10.984375 0.25 "/></g></g></g><g fill="#ffa0a3" fill-opacity="1"><g transform="translate(314.234651, 63.918147)"><g><path d="M 10.96875 0.25 C 9.03125 0.25 7.351562 -0.160156 5.9375 -0.984375 C 4.53125 -1.804688 3.441406 -2.984375 2.671875 -4.515625 C 1.898438 -6.054688 1.515625 -7.859375 1.515625 -9.921875 C 1.515625 -11.984375 1.894531 -13.773438 2.65625 -15.296875 C 3.414062 -16.828125 4.503906 -18.003906 5.921875 -18.828125 C 7.347656 -19.648438 9.03125 -20.0625 10.96875 -20.0625 C 12.894531 -20.0625 14.566406 -19.648438 15.984375 -18.828125 C 17.398438 -18.003906 18.484375 -16.828125 19.234375 -15.296875 C 19.992188 -13.773438 20.375 -11.984375 20.375 -9.921875 C 20.375 -7.859375 19.988281 -6.054688 19.21875 -4.515625 C 18.457031 -2.984375 17.367188 -1.804688 15.953125 -0.984375 C 14.535156 -0.160156 12.875 0.25 10.96875 0.25 Z M 10.96875 -2.640625 C 12.78125 -2.640625 14.195312 -3.265625 15.21875 -4.515625 C 16.238281 -5.773438 16.75 -7.578125 16.75 -9.921875 C 16.75 -12.265625 16.238281 -14.054688 15.21875 -15.296875 C 14.195312 -16.546875 12.78125 -17.171875 10.96875 -17.171875 C 9.125 -17.171875 7.691406 -16.546875 6.671875 -15.296875 C 5.648438 -14.054688 5.140625 -12.265625 5.140625 -9.921875 C 5.140625 -7.578125 5.648438 -5.773438 6.671875 -4.515625 C 7.691406 -3.265625 9.125 -2.640625 10.96875 -2.640625 Z M 10.96875 -2.640625 "/></g></g></g><g fill="#ffa0a3" fill-opacity="1"><g transform="translate(339.493279, 63.918147)"><g><path d="M 17.140625 -19.953125 C 17.671875 -19.953125 18.085938 -19.785156 18.390625 -19.453125 C 18.703125 -19.128906 18.859375 -18.695312 18.859375 -18.15625 L 18.859375 -1.65625 C 18.859375 -1.113281 18.695312 -0.671875 18.375 -0.328125 C 18.0625 0.00390625 17.648438 0.171875 17.140625 0.171875 C 16.546875 0.171875 16.085938 -0.046875 15.765625 -0.484375 L 5.515625 -13.828125 L 5.515625 -1.65625 C 5.515625 -1.113281 5.363281 -0.671875 5.0625 -0.328125 C 4.757812 0.00390625 4.347656 0.171875 3.828125 0.171875 C 3.296875 0.171875 2.878906 0.00390625 2.578125 -0.328125 C 2.285156 -0.671875 2.140625 -1.113281 2.140625 -1.65625 L 2.140625 -18.15625 C 2.140625 -18.695312 2.296875 -19.128906 2.609375 -19.453125 C 2.929688 -19.785156 3.351562 -19.953125 3.875 -19.953125 C 4.457031 -19.953125 4.910156 -19.738281 5.234375 -19.3125 L 15.453125 -6.015625 L 15.453125 -18.15625 C 15.453125 -18.695312 15.609375 -19.128906 15.921875 -19.453125 C 16.234375 -19.785156 16.640625 -19.953125 17.140625 -19.953125 Z M 17.140625 -19.953125 "/></g></g></g><g fill="#00c2cb" fill-opacity="1"><g transform="translate(82.126222, 63.918147)"><g><path d="M 19.734375 -19.953125 C 20.253906 -19.953125 20.671875 -19.785156 20.984375 -19.453125 C 21.304688 -19.128906 21.46875 -18.695312 21.46875 -18.15625 L 21.46875 -1.515625 C 21.46875 -0.992188 21.316406 -0.582031 21.015625 -0.28125 C 20.722656 0.0195312 20.332031 0.171875 19.84375 0.171875 C 19.351562 0.171875 18.96875 0.0195312 18.6875 -0.28125 C 18.40625 -0.582031 18.265625 -0.992188 18.265625 -1.515625 L 18.265625 -13.09375 L 13.5 -4.046875 C 13.269531 -3.628906 13.023438 -3.320312 12.765625 -3.125 C 12.503906 -2.9375 12.191406 -2.84375 11.828125 -2.84375 C 11.472656 -2.84375 11.164062 -2.9375 10.90625 -3.125 C 10.644531 -3.3125 10.398438 -3.617188 10.171875 -4.046875 L 5.375 -12.953125 L 5.375 -1.515625 C 5.375 -1.015625 5.226562 -0.609375 4.9375 -0.296875 C 4.644531 0.015625 4.253906 0.171875 3.765625 0.171875 C 3.273438 0.171875 2.890625 0.0195312 2.609375 -0.28125 C 2.328125 -0.582031 2.1875 -0.992188 2.1875 -1.515625 L 2.1875 -18.15625 C 2.1875 -18.695312 2.34375 -19.128906 2.65625 -19.453125 C 2.96875 -19.785156 3.382812 -19.953125 3.90625 -19.953125 C 4.632812 -19.953125 5.207031 -19.550781 5.625 -18.75 L 11.859375 -6.859375 L 18.078125 -18.75 C 18.484375 -19.550781 19.035156 -19.953125 19.734375 -19.953125 Z M 19.734375 -19.953125 "/></g></g></g><g fill="#00c2cb" fill-opacity="1"><g transform="translate(109.126713, 63.918147)"><g><path d="M 20.09375 -2.171875 C 20.207031 -1.921875 20.265625 -1.675781 20.265625 -1.4375 C 20.265625 -1 20.09375 -0.628906 19.75 -0.328125 C 19.40625 -0.0351562 19.003906 0.109375 18.546875 0.109375 C 18.253906 0.109375 17.972656 0.03125 17.703125 -0.125 C 17.441406 -0.28125 17.238281 -0.53125 17.09375 -0.875 L 15.40625 -4.640625 L 5.515625 -4.640625 L 3.828125 -0.875 C 3.671875 -0.53125 3.460938 -0.28125 3.203125 -0.125 C 2.941406 0.03125 2.648438 0.109375 2.328125 0.109375 C 1.898438 0.109375 1.507812 -0.0351562 1.15625 -0.328125 C 0.800781 -0.628906 0.625 -1 0.625 -1.4375 C 0.625 -1.675781 0.675781 -1.921875 0.78125 -2.171875 L 8.546875 -18.828125 C 8.710938 -19.203125 8.96875 -19.488281 9.3125 -19.6875 C 9.664062 -19.882812 10.035156 -19.984375 10.421875 -19.984375 C 10.816406 -19.984375 11.1875 -19.882812 11.53125 -19.6875 C 11.882812 -19.488281 12.144531 -19.203125 12.3125 -18.828125 Z M 6.75 -7.453125 L 14.171875 -7.453125 L 10.453125 -15.796875 Z M 6.75 -7.453125 "/></g></g></g><g fill="#00c2cb" fill-opacity="1"><g transform="translate(133.345852, 63.918147)"><g><path d="M 17.984375 -2.28125 C 18.210938 -1.9375 18.328125 -1.609375 18.328125 -1.296875 C 18.328125 -0.859375 18.148438 -0.5 17.796875 -0.21875 C 17.453125 0.0625 17.046875 0.203125 16.578125 0.203125 C 16.285156 0.203125 16 0.132812 15.71875 0 C 15.445312 -0.144531 15.21875 -0.359375 15.03125 -0.640625 L 11.296875 -6.328125 C 10.921875 -6.921875 10.519531 -7.335938 10.09375 -7.578125 C 9.675781 -7.828125 9.128906 -7.953125 8.453125 -7.953125 L 5.703125 -7.953125 L 5.703125 -1.65625 C 5.703125 -1.09375 5.539062 -0.644531 5.21875 -0.3125 C 4.90625 0.0078125 4.476562 0.171875 3.9375 0.171875 C 3.394531 0.171875 2.957031 0.0078125 2.625 -0.3125 C 2.300781 -0.644531 2.140625 -1.09375 2.140625 -1.65625 L 2.140625 -18.109375 C 2.140625 -18.648438 2.289062 -19.066406 2.59375 -19.359375 C 2.90625 -19.660156 3.332031 -19.8125 3.875 -19.8125 L 10.90625 -19.8125 C 13.15625 -19.8125 14.863281 -19.3125 16.03125 -18.3125 C 17.207031 -17.3125 17.796875 -15.863281 17.796875 -13.96875 C 17.796875 -12.4375 17.359375 -11.175781 16.484375 -10.1875 C 15.609375 -9.207031 14.378906 -8.578125 12.796875 -8.296875 C 13.335938 -8.160156 13.8125 -7.921875 14.21875 -7.578125 C 14.632812 -7.242188 15.039062 -6.78125 15.4375 -6.1875 Z M 10.40625 -10.734375 C 11.769531 -10.734375 12.769531 -10.988281 13.40625 -11.5 C 14.039062 -12.019531 14.359375 -12.816406 14.359375 -13.890625 C 14.359375 -14.972656 14.039062 -15.757812 13.40625 -16.25 C 12.769531 -16.75 11.769531 -17 10.40625 -17 L 5.671875 -17 L 5.671875 -10.734375 Z M 10.40625 -10.734375 "/></g></g></g><g fill="#00c2cb" fill-opacity="1"><g transform="translate(156.244543, 63.918147)"><g><path d="M 17.515625 -2.734375 C 17.890625 -2.367188 18.078125 -1.960938 18.078125 -1.515625 C 18.078125 -1.085938 17.910156 -0.707031 17.578125 -0.375 C 17.253906 -0.0507812 16.867188 0.109375 16.421875 0.109375 C 15.953125 0.109375 15.519531 -0.0859375 15.125 -0.484375 L 5.765625 -9.25 L 5.765625 -1.65625 C 5.765625 -1.113281 5.597656 -0.671875 5.265625 -0.328125 C 4.941406 0.00390625 4.5 0.171875 3.9375 0.171875 C 3.394531 0.171875 2.957031 0.00390625 2.625 -0.328125 C 2.300781 -0.671875 2.140625 -1.113281 2.140625 -1.65625 L 2.140625 -18.15625 C 2.140625 -18.695312 2.300781 -19.128906 2.625 -19.453125 C 2.957031 -19.785156 3.394531 -19.953125 3.9375 -19.953125 C 4.5 -19.953125 4.941406 -19.785156 5.265625 -19.453125 C 5.597656 -19.128906 5.765625 -18.695312 5.765625 -18.15625 L 5.765625 -10.9375 L 14.8125 -19.421875 C 15.144531 -19.753906 15.53125 -19.921875 15.96875 -19.921875 C 16.394531 -19.921875 16.769531 -19.757812 17.09375 -19.4375 C 17.425781 -19.113281 17.59375 -18.734375 17.59375 -18.296875 C 17.59375 -17.867188 17.40625 -17.476562 17.03125 -17.125 L 9.46875 -10.203125 Z M 17.515625 -2.734375 "/></g></g></g><g fill="#00c2cb" fill-opacity="1"><g transform="translate(178.159943, 63.918147)"><g><path d="M 3.875 0 C 3.332031 0 2.90625 -0.148438 2.59375 -0.453125 C 2.289062 -0.753906 2.140625 -1.175781 2.140625 -1.71875 L 2.140625 -18.109375 C 2.140625 -18.648438 2.289062 -19.066406 2.59375 -19.359375 C 2.90625 -19.660156 3.332031 -19.8125 3.875 -19.8125 L 14.03125 -19.8125 C 14.570312 -19.8125 14.988281 -19.691406 15.28125 -19.453125 C 15.582031 -19.210938 15.734375 -18.863281 15.734375 -18.40625 C 15.734375 -17.9375 15.582031 -17.578125 15.28125 -17.328125 C 14.988281 -17.078125 14.570312 -16.953125 14.03125 -16.953125 L 5.671875 -16.953125 L 5.671875 -11.5 L 13.46875 -11.5 C 14.007812 -11.5 14.425781 -11.375 14.71875 -11.125 C 15.019531 -10.882812 15.171875 -10.53125 15.171875 -10.0625 C 15.171875 -9.613281 15.019531 -9.265625 14.71875 -9.015625 C 14.425781 -8.773438 14.007812 -8.65625 13.46875 -8.65625 L 5.671875 -8.65625 L 5.671875 -2.859375 L 14.03125 -2.859375 C 14.570312 -2.859375 14.988281 -2.734375 15.28125 -2.484375 C 15.582031 -2.234375 15.734375 -1.875 15.734375 -1.40625 C 15.734375 -0.957031 15.582031 -0.609375 15.28125 -0.359375 C 14.988281 -0.117188 14.570312 0 14.03125 0 Z M 3.875 0 "/></g></g></g><g fill="#00c2cb" fill-opacity="1"><g transform="translate(198.080629, 63.918147)"><g><path d="M 8.625 0.140625 C 8.0625 0.140625 7.613281 -0.0195312 7.28125 -0.34375 C 6.957031 -0.675781 6.796875 -1.113281 6.796875 -1.65625 L 6.796875 -16.84375 L 1.6875 -16.84375 C 0.5625 -16.84375 0 -17.335938 0 -18.328125 C 0 -19.316406 0.5625 -19.8125 1.6875 -19.8125 L 15.546875 -19.8125 C 16.671875 -19.8125 17.234375 -19.316406 17.234375 -18.328125 C 17.234375 -17.335938 16.671875 -16.84375 15.546875 -16.84375 L 10.421875 -16.84375 L 10.421875 -1.65625 C 10.421875 -1.113281 10.253906 -0.675781 9.921875 -0.34375 C 9.597656 -0.0195312 9.164062 0.140625 8.625 0.140625 Z M 8.625 0.140625 "/></g></g></g><g fill="#00c2cb" fill-opacity="1"><g transform="translate(218.675582, 63.918147)"><g><path d="M 3.9375 0.171875 C 3.394531 0.171875 2.957031 0.00390625 2.625 -0.328125 C 2.300781 -0.671875 2.140625 -1.113281 2.140625 -1.65625 L 2.140625 -18.15625 C 2.140625 -18.695312 2.300781 -19.128906 2.625 -19.453125 C 2.957031 -19.785156 3.394531 -19.953125 3.9375 -19.953125 C 4.5 -19.953125 4.941406 -19.785156 5.265625 -19.453125 C 5.597656 -19.128906 5.765625 -18.695312 5.765625 -18.15625 L 5.765625 -1.65625 C 5.765625 -1.113281 5.597656 -0.671875 5.265625 -0.328125 C 4.941406 0.00390625 4.5 0.171875 3.9375 0.171875 Z M 3.9375 0.171875 "/></g></g></g><g fill="#00c2cb" fill-opacity="1"><g transform="translate(229.943201, 63.918147)"><g><path d="M 17.140625 -19.953125 C 17.671875 -19.953125 18.085938 -19.785156 18.390625 -19.453125 C 18.703125 -19.128906 18.859375 -18.695312 18.859375 -18.15625 L 18.859375 -1.65625 C 18.859375 -1.113281 18.695312 -0.671875 18.375 -0.328125 C 18.0625 0.00390625 17.648438 0.171875 17.140625 0.171875 C 16.546875 0.171875 16.085938 -0.046875 15.765625 -0.484375 L 5.515625 -13.828125 L 5.515625 -1.65625 C 5.515625 -1.113281 5.363281 -0.671875 5.0625 -0.328125 C 4.757812 0.00390625 4.347656 0.171875 3.828125 0.171875 C 3.296875 0.171875 2.878906 0.00390625 2.578125 -0.328125 C 2.285156 -0.671875 2.140625 -1.113281 2.140625 -1.65625 L 2.140625 -18.15625 C 2.140625 -18.695312 2.296875 -19.128906 2.609375 -19.453125 C 2.929688 -19.785156 3.351562 -19.953125 3.875 -19.953125 C 4.457031 -19.953125 4.910156 -19.738281 5.234375 -19.3125 L 15.453125 -6.015625 L 15.453125 -18.15625 C 15.453125 -18.695312 15.609375 -19.128906 15.921875 -19.453125 C 16.234375 -19.785156 16.640625 -19.953125 17.140625 -19.953125 Z M 17.140625 -19.953125 "/></g></g></g><g fill="#00c2cb" fill-opacity="1"><g transform="translate(254.302814, 63.918147)"><g><path d="M 17.234375 -10.703125 C 17.660156 -10.703125 18.003906 -10.578125 18.265625 -10.328125 C 18.535156 -10.078125 18.671875 -9.742188 18.671875 -9.328125 L 18.671875 -3.28125 C 18.671875 -2.425781 18.554688 -1.816406 18.328125 -1.453125 C 18.097656 -1.097656 17.640625 -0.8125 16.953125 -0.59375 C 16.203125 -0.332031 15.328125 -0.128906 14.328125 0.015625 C 13.335938 0.171875 12.382812 0.25 11.46875 0.25 C 9.425781 0.25 7.65625 -0.148438 6.15625 -0.953125 C 4.65625 -1.765625 3.503906 -2.929688 2.703125 -4.453125 C 1.910156 -5.984375 1.515625 -7.804688 1.515625 -9.921875 C 1.515625 -12.003906 1.910156 -13.804688 2.703125 -15.328125 C 3.503906 -16.859375 4.632812 -18.03125 6.09375 -18.84375 C 7.5625 -19.65625 9.285156 -20.0625 11.265625 -20.0625 C 13.910156 -20.0625 16.078125 -19.351562 17.765625 -17.9375 C 17.992188 -17.726562 18.15625 -17.519531 18.25 -17.3125 C 18.351562 -17.101562 18.40625 -16.859375 18.40625 -16.578125 C 18.40625 -16.171875 18.289062 -15.828125 18.0625 -15.546875 C 17.84375 -15.265625 17.578125 -15.125 17.265625 -15.125 C 17.054688 -15.125 16.863281 -15.15625 16.6875 -15.21875 C 16.519531 -15.28125 16.328125 -15.390625 16.109375 -15.546875 C 15.285156 -16.128906 14.515625 -16.535156 13.796875 -16.765625 C 13.085938 -17.003906 12.285156 -17.125 11.390625 -17.125 C 9.347656 -17.125 7.804688 -16.519531 6.765625 -15.3125 C 5.722656 -14.101562 5.203125 -12.304688 5.203125 -9.921875 C 5.203125 -5.046875 7.335938 -2.609375 11.609375 -2.609375 C 12.878906 -2.609375 14.15625 -2.785156 15.4375 -3.140625 L 15.4375 -8.125 L 12.25 -8.125 C 11.800781 -8.125 11.453125 -8.234375 11.203125 -8.453125 C 10.953125 -8.679688 10.828125 -9.003906 10.828125 -9.421875 C 10.828125 -9.828125 10.953125 -10.140625 11.203125 -10.359375 C 11.453125 -10.585938 11.800781 -10.703125 12.25 -10.703125 Z M 17.234375 -10.703125 "/></g></g></g><g fill="#00c2cb" fill-opacity="1"><g transform="translate(278.269099, 63.918147)"><g/></g></g><g fill="#00c2cb" fill-opacity="1"><g transform="translate(289.255773, 63.918147)"><g><path d="M 10.984375 0.25 C 9.078125 0.25 7.40625 -0.160156 5.96875 -0.984375 C 4.539062 -1.804688 3.441406 -2.984375 2.671875 -4.515625 C 1.898438 -6.054688 1.515625 -7.859375 1.515625 -9.921875 C 1.515625 -11.984375 1.898438 -13.773438 2.671875 -15.296875 C 3.441406 -16.828125 4.539062 -18.003906 5.96875 -18.828125 C 7.40625 -19.648438 9.078125 -20.0625 10.984375 -20.0625 C 12.222656 -20.0625 13.382812 -19.878906 14.46875 -19.515625 C 15.5625 -19.148438 16.53125 -18.625 17.375 -17.9375 C 17.613281 -17.75 17.78125 -17.550781 17.875 -17.34375 C 17.96875 -17.132812 18.015625 -16.878906 18.015625 -16.578125 C 18.015625 -16.171875 17.898438 -15.828125 17.671875 -15.546875 C 17.453125 -15.265625 17.179688 -15.125 16.859375 -15.125 C 16.484375 -15.125 16.101562 -15.253906 15.71875 -15.515625 C 14.90625 -16.117188 14.148438 -16.535156 13.453125 -16.765625 C 12.765625 -17.003906 12 -17.125 11.15625 -17.125 C 9.207031 -17.125 7.734375 -16.515625 6.734375 -15.296875 C 5.734375 -14.078125 5.234375 -12.285156 5.234375 -9.921875 C 5.234375 -7.546875 5.734375 -5.75 6.734375 -4.53125 C 7.734375 -3.3125 9.207031 -2.703125 11.15625 -2.703125 C 11.96875 -2.703125 12.710938 -2.820312 13.390625 -3.0625 C 14.078125 -3.300781 14.851562 -3.710938 15.71875 -4.296875 C 15.90625 -4.410156 16.09375 -4.503906 16.28125 -4.578125 C 16.46875 -4.648438 16.660156 -4.6875 16.859375 -4.6875 C 17.179688 -4.6875 17.453125 -4.546875 17.671875 -4.265625 C 17.898438 -3.984375 18.015625 -3.640625 18.015625 -3.234375 C 18.015625 -2.953125 17.96875 -2.703125 17.875 -2.484375 C 17.78125 -2.273438 17.613281 -2.078125 17.375 -1.890625 C 16.53125 -1.191406 15.5625 -0.660156 14.46875 -0.296875 C 13.382812 0.0664062 12.222656 0.25 10.984375 0.25 Z M 10.984375 0.25 "/></g></g></g><g fill="#00c2cb" fill-opacity="1"><g transform="translate(311.676858, 63.918147)"><g><path d="M 10.96875 0.25 C 9.03125 0.25 7.351562 -0.160156 5.9375 -0.984375 C 4.53125 -1.804688 3.441406 -2.984375 2.671875 -4.515625 C 1.898438 -6.054688 1.515625 -7.859375 1.515625 -9.921875 C 1.515625 -11.984375 1.894531 -13.773438 2.65625 -15.296875 C 3.414062 -16.828125 4.503906 -18.003906 5.921875 -18.828125 C 7.347656 -19.648438 9.03125 -20.0625 10.96875 -20.0625 C 12.894531 -20.0625 14.566406 -19.648438 15.984375 -18.828125 C 17.398438 -18.003906 18.484375 -16.828125 19.234375 -15.296875 C 19.992188 -13.773438 20.375 -11.984375 20.375 -9.921875 C 20.375 -7.859375 19.988281 -6.054688 19.21875 -4.515625 C 18.457031 -2.984375 17.367188 -1.804688 15.953125 -0.984375 C 14.535156 -0.160156 12.875 0.25 10.96875 0.25 Z M 10.96875 -2.640625 C 12.78125 -2.640625 14.195312 -3.265625 15.21875 -4.515625 C 16.238281 -5.773438 16.75 -7.578125 16.75 -9.921875 C 16.75 -12.265625 16.238281 -14.054688 15.21875 -15.296875 C 14.195312 -16.546875 12.78125 -17.171875 10.96875 -17.171875 C 9.125 -17.171875 7.691406 -16.546875 6.671875 -15.296875 C 5.648438 -14.054688 5.140625 -12.265625 5.140625 -9.921875 C 5.140625 -7.578125 5.648438 -5.773438 6.671875 -4.515625 C 7.691406 -3.265625 9.125 -2.640625 10.96875 -2.640625 Z M 10.96875 -2.640625 "/></g></g></g><g fill="#00c2cb" fill-opacity="1"><g transform="translate(336.935486, 63.918147)"><g><path d="M 17.140625 -19.953125 C 17.671875 -19.953125 18.085938 -19.785156 18.390625 -19.453125 C 18.703125 -19.128906 18.859375 -18.695312 18.859375 -18.15625 L 18.859375 -1.65625 C 18.859375 -1.113281 18.695312 -0.671875 18.375 -0.328125 C 18.0625 0.00390625 17.648438 0.171875 17.140625 0.171875 C 16.546875 0.171875 16.085938 -0.046875 15.765625 -0.484375 L 5.515625 -13.828125 L 5.515625 -1.65625 C 5.515625 -1.113281 5.363281 -0.671875 5.0625 -0.328125 C 4.757812 0.00390625 4.347656 0.171875 3.828125 0.171875 C 3.296875 0.171875 2.878906 0.00390625 2.578125 -0.328125 C 2.285156 -0.671875 2.140625 -1.113281 2.140625 -1.65625 L 2.140625 -18.15625 C 2.140625 -18.695312 2.296875 -19.128906 2.609375 -19.453125 C 2.929688 -19.785156 3.351562 -19.953125 3.875 -19.953125 C 4.457031 -19.953125 4.910156 -19.738281 5.234375 -19.3125 L 15.453125 -6.015625 L 15.453125 -18.15625 C 15.453125 -18.695312 15.609375 -19.128906 15.921875 -19.453125 C 16.234375 -19.785156 16.640625 -19.953125 17.140625 -19.953125 Z M 17.140625 -19.953125 "/></g></g></g><g fill="#ffa0a3" fill-opacity="1"><g transform="translate(84.845528, 118.534825)"><g><path d="M 40.90625 -29.453125 C 40.90625 -31.148438 40.648438 -32.65625 40.140625 -33.96875 C 39.628906 -35.28125 38.9375 -36.421875 38.0625 -37.390625 C 37.195312 -38.367188 36.171875 -39.195312 34.984375 -39.875 C 33.796875 -40.5625 32.53125 -41.117188 31.1875 -41.546875 C 29.84375 -41.984375 28.445312 -42.304688 27 -42.515625 C 25.550781 -42.722656 24.132812 -42.859375 22.75 -42.921875 L 20.546875 -42.921875 L 19.859375 -16.359375 C 20.503906 -16.191406 21.203125 -16.066406 21.953125 -15.984375 C 22.710938 -15.898438 23.515625 -15.859375 24.359375 -15.859375 C 26.554688 -15.859375 28.65625 -16.144531 30.65625 -16.71875 C 32.664062 -17.300781 34.429688 -18.15625 35.953125 -19.28125 C 37.472656 -20.414062 38.675781 -21.832031 39.5625 -23.53125 C 40.457031 -25.238281 40.90625 -27.210938 40.90625 -29.453125 Z M 24.359375 -12.5625 C 23.515625 -12.5625 22.707031 -12.597656 21.9375 -12.671875 C 21.175781 -12.742188 20.460938 -12.863281 19.796875 -13.03125 L 19.546875 -3.078125 C 20.335938 -3.015625 21.144531 -2.953125 21.96875 -2.890625 C 22.800781 -2.828125 23.640625 -2.765625 24.484375 -2.703125 C 24.898438 -2.640625 25.25 -2.453125 25.53125 -2.140625 C 25.820312 -1.828125 25.96875 -1.457031 25.96875 -1.03125 C 25.96875 -0.550781 25.785156 -0.164062 25.421875 0.125 C 25.066406 0.414062 24.691406 0.5625 24.296875 0.5625 L 24.171875 0.5625 C 22.492188 0.394531 20.816406 0.269531 19.140625 0.1875 C 17.472656 0.101562 15.800781 0.0625 14.125 0.0625 C 12.46875 0.0625 10.828125 0.101562 9.203125 0.1875 C 7.578125 0.269531 5.945312 0.394531 4.3125 0.5625 L 4.1875 0.5625 C 3.726562 0.5625 3.332031 0.398438 3 0.078125 C 2.675781 -0.242188 2.515625 -0.613281 2.515625 -1.03125 C 2.515625 -1.457031 2.65625 -1.828125 2.9375 -2.140625 C 3.226562 -2.453125 3.582031 -2.640625 4 -2.703125 C 4.769531 -2.765625 5.546875 -2.828125 6.328125 -2.890625 C 7.117188 -2.953125 7.90625 -3.015625 8.6875 -3.078125 L 9.40625 -42.140625 C 7.851562 -41.890625 6.703125 -41.632812 5.953125 -41.375 C 5.210938 -41.125 4.820312 -41 4.78125 -41 C 4.53125 -40.894531 4.332031 -40.84375 4.1875 -40.84375 C 3.726562 -40.84375 3.332031 -41.019531 3 -41.375 C 2.675781 -41.738281 2.515625 -42.128906 2.515625 -42.546875 C 2.515625 -42.859375 2.601562 -43.160156 2.78125 -43.453125 C 2.957031 -43.753906 3.21875 -43.96875 3.5625 -44.09375 C 3.625 -44.113281 4.007812 -44.234375 4.71875 -44.453125 C 5.4375 -44.671875 6.46875 -44.914062 7.8125 -45.1875 C 9.164062 -45.46875 10.847656 -45.71875 12.859375 -45.9375 C 14.878906 -46.15625 17.234375 -46.265625 19.921875 -46.265625 C 20.378906 -46.265625 20.851562 -46.265625 21.34375 -46.265625 C 21.84375 -46.265625 22.332031 -46.242188 22.8125 -46.203125 C 24.632812 -46.140625 26.425781 -45.957031 28.1875 -45.65625 C 29.957031 -45.363281 31.640625 -44.921875 33.234375 -44.328125 C 34.828125 -43.734375 36.289062 -42.992188 37.625 -42.109375 C 38.957031 -41.222656 40.113281 -40.164062 41.09375 -38.9375 C 42.082031 -37.71875 42.847656 -36.320312 43.390625 -34.75 C 43.941406 -33.175781 44.21875 -31.410156 44.21875 -29.453125 C 44.21875 -27.609375 43.941406 -25.914062 43.390625 -24.375 C 42.847656 -22.832031 42.097656 -21.4375 41.140625 -20.1875 C 40.191406 -18.9375 39.078125 -17.832031 37.796875 -16.875 C 36.515625 -15.925781 35.132812 -15.128906 33.65625 -14.484375 C 32.175781 -13.847656 30.644531 -13.367188 29.0625 -13.046875 C 27.476562 -12.722656 25.910156 -12.5625 24.359375 -12.5625 Z M 24.359375 -12.5625 "/></g></g></g><g fill="#ffa0a3" fill-opacity="1"><g transform="translate(125.888517, 118.534825)"><g><path d="M 31.5 -16.546875 C 30.726562 -18.921875 29.910156 -21.109375 29.046875 -23.109375 C 28.179688 -25.117188 27.332031 -26.925781 26.5 -28.53125 C 25.675781 -30.132812 24.890625 -31.539062 24.140625 -32.75 C 23.398438 -33.957031 22.769531 -34.945312 22.25 -35.71875 C 20.300781 -32.40625 18.554688 -29.171875 17.015625 -26.015625 C 15.472656 -22.859375 14.101562 -19.703125 12.90625 -16.546875 C 14.582031 -16.359375 16.195312 -16.207031 17.75 -16.09375 C 19.300781 -15.976562 20.84375 -15.921875 22.375 -15.921875 C 23.882812 -15.921875 25.390625 -15.976562 26.890625 -16.09375 C 28.390625 -16.207031 29.925781 -16.359375 31.5 -16.546875 Z M 52.96875 0.71875 C 52.925781 0.71875 52.882812 0.710938 52.84375 0.703125 C 52.800781 0.691406 52.757812 0.664062 52.71875 0.625 C 50.800781 0.332031 48.914062 0.125 47.0625 0 C 45.207031 -0.125 43.359375 -0.1875 41.515625 -0.1875 C 39.679688 -0.1875 37.878906 -0.125 36.109375 0 C 34.335938 0.125 32.570312 0.332031 30.8125 0.625 C 30.769531 0.664062 30.726562 0.691406 30.6875 0.703125 C 30.644531 0.710938 30.601562 0.71875 30.5625 0.71875 C 30.09375 0.71875 29.695312 0.539062 29.375 0.1875 C 29.050781 -0.164062 28.890625 -0.550781 28.890625 -0.96875 C 28.890625 -1.351562 29.019531 -1.703125 29.28125 -2.015625 C 29.539062 -2.328125 29.882812 -2.515625 30.3125 -2.578125 C 31.144531 -2.742188 31.988281 -2.875 32.84375 -2.96875 C 33.707031 -3.0625 34.59375 -3.160156 35.5 -3.265625 C 35.394531 -3.671875 35.269531 -4.171875 35.125 -4.765625 C 34.976562 -5.367188 34.78125 -6.078125 34.53125 -6.890625 C 34.289062 -7.710938 34.007812 -8.660156 33.6875 -9.734375 C 33.363281 -10.816406 32.984375 -12.039062 32.546875 -13.40625 C 30.753906 -13.15625 29.03125 -12.960938 27.375 -12.828125 C 25.71875 -12.691406 24.050781 -12.625 22.375 -12.625 C 20.675781 -12.625 18.957031 -12.691406 17.21875 -12.828125 C 15.476562 -12.960938 13.648438 -13.15625 11.734375 -13.40625 C 10.628906 -10.09375 9.726562 -6.8125 9.03125 -3.5625 C 10.332031 -3.519531 11.640625 -3.414062 12.953125 -3.25 C 14.265625 -3.09375 15.601562 -2.867188 16.96875 -2.578125 C 17.34375 -2.515625 17.648438 -2.328125 17.890625 -2.015625 C 18.128906 -1.703125 18.25 -1.351562 18.25 -0.96875 C 18.25 -0.488281 18.066406 -0.0859375 17.703125 0.234375 C 17.335938 0.554688 16.953125 0.71875 16.546875 0.71875 C 16.484375 0.71875 16.429688 0.703125 16.390625 0.671875 C 16.347656 0.640625 16.296875 0.625 16.234375 0.625 C 14.847656 0.332031 13.488281 0.113281 12.15625 -0.03125 C 10.832031 -0.175781 9.507812 -0.25 8.1875 -0.25 C 6.882812 -0.25 5.601562 -0.175781 4.34375 -0.03125 C 3.082031 0.113281 1.800781 0.332031 0.5 0.625 C 0.4375 0.625 0.382812 0.640625 0.34375 0.671875 C 0.300781 0.703125 0.25 0.71875 0.1875 0.71875 C -0.289062 0.71875 -0.6875 0.550781 -1 0.21875 C -1.320312 -0.113281 -1.484375 -0.507812 -1.484375 -0.96875 C -1.484375 -1.351562 -1.363281 -1.691406 -1.125 -1.984375 C -0.894531 -2.273438 -0.582031 -2.472656 -0.1875 -2.578125 C 0.757812 -2.804688 1.707031 -2.984375 2.65625 -3.109375 C 3.613281 -3.234375 4.597656 -3.34375 5.609375 -3.4375 C 6.316406 -6.894531 7.25 -10.351562 8.40625 -13.8125 C 9.5625 -17.28125 10.941406 -20.78125 12.546875 -24.3125 C 14.148438 -27.84375 15.988281 -31.429688 18.0625 -35.078125 C 20.144531 -38.734375 22.484375 -42.492188 25.078125 -46.359375 C 25.265625 -46.609375 25.476562 -46.785156 25.71875 -46.890625 C 25.96875 -46.992188 26.207031 -47.046875 26.4375 -47.046875 C 26.6875 -47.046875 26.925781 -47 27.15625 -46.90625 C 27.382812 -46.8125 27.570312 -46.671875 27.71875 -46.484375 C 32.125 -40.859375 35.90625 -34.484375 39.0625 -27.359375 C 42.226562 -20.242188 44.828125 -12.238281 46.859375 -3.34375 C 49.003906 -3.144531 51.132812 -2.890625 53.25 -2.578125 C 53.664062 -2.515625 54.003906 -2.328125 54.265625 -2.015625 C 54.535156 -1.703125 54.671875 -1.351562 54.671875 -0.96875 C 54.671875 -0.507812 54.484375 -0.113281 54.109375 0.21875 C 53.742188 0.550781 53.363281 0.71875 52.96875 0.71875 Z M 52.96875 0.71875 "/></g></g></g><g fill="#ffa0a3" fill-opacity="1"><g transform="translate(173.948333, 118.534825)"><g><path d="M 52.96875 -45.125 C 52.96875 -44.539062 52.835938 -44.082031 52.578125 -43.75 C 52.328125 -43.425781 52.023438 -43.210938 51.671875 -43.109375 C 50.515625 -42.878906 49.398438 -42.691406 48.328125 -42.546875 C 47.265625 -42.398438 46.195312 -42.285156 45.125 -42.203125 C 45.019531 -41.253906 44.867188 -39.691406 44.671875 -37.515625 C 44.472656 -35.347656 44.28125 -32.6875 44.09375 -29.53125 C 43.90625 -26.375 43.738281 -22.789062 43.59375 -18.78125 C 43.445312 -14.78125 43.375 -10.472656 43.375 -5.859375 L 43.375 -2.765625 C 44.414062 -2.765625 45.453125 -2.738281 46.484375 -2.6875 C 47.515625 -2.632812 48.582031 -2.554688 49.6875 -2.453125 C 50.175781 -2.347656 50.546875 -2.132812 50.796875 -1.8125 C 51.046875 -1.488281 51.171875 -1.09375 51.171875 -0.625 C 51.128906 -0.1875 50.945312 0.164062 50.625 0.4375 C 50.300781 0.707031 49.925781 0.84375 49.5 0.84375 L 49.375 0.84375 C 48.175781 0.738281 47 0.65625 45.84375 0.59375 C 44.695312 0.53125 43.554688 0.5 42.421875 0.5 C 41.285156 0.5 40.160156 0.53125 39.046875 0.59375 C 37.941406 0.65625 36.851562 0.738281 35.78125 0.84375 L 35.5625 0.84375 C 35.082031 0.84375 34.679688 0.675781 34.359375 0.34375 C 34.046875 0.0078125 33.890625 -0.363281 33.890625 -0.78125 C 33.890625 -1.207031 34.03125 -1.578125 34.3125 -1.890625 C 34.601562 -2.203125 34.957031 -2.390625 35.375 -2.453125 C 36.164062 -2.515625 36.953125 -2.570312 37.734375 -2.625 C 38.515625 -2.675781 39.300781 -2.722656 40.09375 -2.765625 L 40.09375 -5.859375 C 40.09375 -10.453125 40.15625 -14.75 40.28125 -18.75 C 38.5625 -18.582031 36.84375 -18.46875 35.125 -18.40625 C 33.40625 -18.34375 31.679688 -18.3125 29.953125 -18.3125 C 28.210938 -18.3125 26.507812 -18.34375 24.84375 -18.40625 C 23.175781 -18.46875 21.535156 -18.582031 19.921875 -18.75 L 19.546875 -2.828125 C 20.335938 -2.765625 21.144531 -2.703125 21.96875 -2.640625 C 22.800781 -2.578125 23.640625 -2.515625 24.484375 -2.453125 C 24.898438 -2.390625 25.25 -2.203125 25.53125 -1.890625 C 25.820312 -1.578125 25.96875 -1.207031 25.96875 -0.78125 C 25.96875 -0.300781 25.785156 0.0859375 25.421875 0.390625 C 25.066406 0.691406 24.691406 0.84375 24.296875 0.84375 L 24.171875 0.84375 C 22.492188 0.675781 20.816406 0.546875 19.140625 0.453125 C 17.472656 0.359375 15.800781 0.3125 14.125 0.3125 C 12.46875 0.3125 10.828125 0.359375 9.203125 0.453125 C 7.578125 0.546875 5.945312 0.675781 4.3125 0.84375 L 4.1875 0.84375 C 3.707031 0.84375 3.304688 0.675781 2.984375 0.34375 C 2.671875 0.0078125 2.515625 -0.363281 2.515625 -0.78125 C 2.515625 -1.207031 2.65625 -1.578125 2.9375 -1.890625 C 3.226562 -2.203125 3.582031 -2.390625 4 -2.453125 C 4.769531 -2.515625 5.546875 -2.578125 6.328125 -2.640625 C 7.117188 -2.703125 7.90625 -2.765625 8.6875 -2.828125 L 9.40625 -42.546875 C 7.601562 -42.671875 5.78125 -42.859375 3.9375 -43.109375 C 3.507812 -43.171875 3.164062 -43.359375 2.90625 -43.671875 C 2.644531 -43.992188 2.515625 -44.34375 2.515625 -44.71875 C 2.515625 -45.257812 2.703125 -45.675781 3.078125 -45.96875 C 3.460938 -46.269531 3.832031 -46.421875 4.1875 -46.421875 L 4.375 -46.421875 C 6.59375 -46.085938 8.78125 -45.847656 10.9375 -45.703125 C 13.101562 -45.566406 15.257812 -45.5 17.40625 -45.5 C 18.707031 -45.5 19.984375 -45.519531 21.234375 -45.5625 C 22.492188 -45.613281 23.753906 -45.703125 25.015625 -45.828125 L 25.140625 -45.828125 C 25.566406 -45.828125 25.941406 -45.679688 26.265625 -45.390625 C 26.585938 -45.109375 26.769531 -44.757812 26.8125 -44.34375 C 26.8125 -43.820312 26.660156 -43.398438 26.359375 -43.078125 C 26.054688 -42.765625 25.691406 -42.585938 25.265625 -42.546875 C 24.492188 -42.484375 23.71875 -42.421875 22.9375 -42.359375 C 22.164062 -42.296875 21.367188 -42.242188 20.546875 -42.203125 L 20.046875 -22.09375 C 21.597656 -21.90625 23.210938 -21.773438 24.890625 -21.703125 C 26.566406 -21.628906 28.253906 -21.59375 29.953125 -21.59375 C 31.722656 -21.59375 33.472656 -21.625 35.203125 -21.6875 C 36.929688 -21.75 38.664062 -21.863281 40.40625 -22.03125 C 40.488281 -24.507812 40.597656 -26.804688 40.734375 -28.921875 C 40.867188 -31.035156 41.003906 -32.945312 41.140625 -34.65625 C 41.285156 -36.375 41.414062 -37.851562 41.53125 -39.09375 C 41.644531 -40.34375 41.742188 -41.335938 41.828125 -42.078125 C 40.984375 -42.117188 40.15625 -42.171875 39.34375 -42.234375 C 38.539062 -42.296875 37.742188 -42.398438 36.953125 -42.546875 C 36.546875 -42.609375 36.210938 -42.789062 35.953125 -43.09375 C 35.691406 -43.40625 35.5625 -43.757812 35.5625 -44.15625 C 35.5625 -44.675781 35.742188 -45.082031 36.109375 -45.375 C 36.472656 -45.675781 36.835938 -45.828125 37.203125 -45.828125 L 37.453125 -45.828125 C 38.285156 -45.660156 39.125 -45.539062 39.96875 -45.46875 C 40.8125 -45.40625 41.671875 -45.375 42.546875 -45.375 C 43.867188 -45.375 45.226562 -45.457031 46.625 -45.625 C 48.019531 -45.800781 49.472656 -46.066406 50.984375 -46.421875 L 51.359375 -46.421875 C 51.753906 -46.421875 52.09375 -46.300781 52.375 -46.0625 C 52.664062 -45.820312 52.863281 -45.507812 52.96875 -45.125 Z M 52.96875 -45.125 "/></g></g></g><g fill="#ffa0a3" fill-opacity="1"><g transform="translate(223.046513, 118.534825)"><g><path d="M 45.25 -22.375 C 45.25 -23.800781 45.0625 -25.296875 44.6875 -26.859375 C 44.3125 -28.421875 43.78125 -29.953125 43.09375 -31.453125 C 42.414062 -32.953125 41.597656 -34.378906 40.640625 -35.734375 C 39.691406 -37.085938 38.644531 -38.269531 37.5 -39.28125 C 36.351562 -40.300781 35.128906 -41.109375 33.828125 -41.703125 C 32.523438 -42.304688 31.191406 -42.609375 29.828125 -42.609375 C 27.984375 -42.609375 26.316406 -42.332031 24.828125 -41.78125 C 23.335938 -41.238281 22.007812 -40.5 20.84375 -39.5625 C 19.6875 -38.632812 18.675781 -37.53125 17.8125 -36.25 C 16.945312 -34.96875 16.238281 -33.597656 15.6875 -32.140625 C 15.132812 -30.679688 14.71875 -29.160156 14.4375 -27.578125 C 14.164062 -25.992188 14.03125 -24.425781 14.03125 -22.875 C 14.03125 -21.175781 14.128906 -19.476562 14.328125 -17.78125 C 14.535156 -16.082031 14.875 -14.453125 15.34375 -12.890625 C 15.8125 -11.328125 16.414062 -9.867188 17.15625 -8.515625 C 17.90625 -7.160156 18.828125 -5.984375 19.921875 -4.984375 C 21.015625 -3.992188 22.289062 -3.210938 23.75 -2.640625 C 25.207031 -2.078125 26.867188 -1.796875 28.734375 -1.796875 C 30.222656 -1.796875 31.664062 -2.085938 33.0625 -2.671875 C 34.457031 -3.265625 35.765625 -4.054688 36.984375 -5.046875 C 38.210938 -6.046875 39.335938 -7.222656 40.359375 -8.578125 C 41.378906 -9.929688 42.25 -11.367188 42.96875 -12.890625 C 43.695312 -14.410156 44.257812 -15.984375 44.65625 -17.609375 C 45.050781 -19.234375 45.25 -20.820312 45.25 -22.375 Z M 48.53125 -22.375 C 48.53125 -20.175781 48.25 -18.050781 47.6875 -16 C 47.132812 -13.957031 46.359375 -12.03125 45.359375 -10.21875 C 44.367188 -8.414062 43.171875 -6.769531 41.765625 -5.28125 C 40.359375 -3.789062 38.8125 -2.507812 37.125 -1.4375 C 35.4375 -0.375 33.625 0.445312 31.6875 1.03125 C 29.757812 1.625 27.769531 1.921875 25.71875 1.921875 C 23.632812 1.921875 21.625 1.628906 19.6875 1.046875 C 17.75 0.472656 15.9375 -0.335938 14.25 -1.390625 C 12.570312 -2.453125 11.035156 -3.722656 9.640625 -5.203125 C 8.242188 -6.679688 7.050781 -8.316406 6.0625 -10.109375 C 5.082031 -11.910156 4.316406 -13.847656 3.765625 -15.921875 C 3.222656 -18.003906 2.953125 -20.15625 2.953125 -22.375 C 2.953125 -24.601562 3.222656 -26.753906 3.765625 -28.828125 C 4.316406 -30.898438 5.082031 -32.832031 6.0625 -34.625 C 7.050781 -36.425781 8.242188 -38.066406 9.640625 -39.546875 C 11.035156 -41.023438 12.570312 -42.289062 14.25 -43.34375 C 15.9375 -44.40625 17.75 -45.222656 19.6875 -45.796875 C 21.625 -46.378906 23.632812 -46.671875 25.71875 -46.671875 C 27.914062 -46.671875 30.003906 -46.351562 31.984375 -45.71875 C 33.972656 -45.09375 35.8125 -44.222656 37.5 -43.109375 C 39.1875 -42.003906 40.710938 -40.6875 42.078125 -39.15625 C 43.441406 -37.625 44.597656 -35.953125 45.546875 -34.140625 C 46.503906 -32.335938 47.238281 -30.4375 47.75 -28.4375 C 48.269531 -26.445312 48.53125 -24.425781 48.53125 -22.375 Z M 48.53125 -22.375 "/></g></g></g><g fill="#00c2cb" fill-opacity="1"><g transform="translate(82.126222, 117.148252)"><g><path d="M 40.90625 -29.453125 C 40.90625 -31.148438 40.648438 -32.65625 40.140625 -33.96875 C 39.628906 -35.28125 38.9375 -36.421875 38.0625 -37.390625 C 37.195312 -38.367188 36.171875 -39.195312 34.984375 -39.875 C 33.796875 -40.5625 32.53125 -41.117188 31.1875 -41.546875 C 29.84375 -41.984375 28.445312 -42.304688 27 -42.515625 C 25.550781 -42.722656 24.132812 -42.859375 22.75 -42.921875 L 20.546875 -42.921875 L 19.859375 -16.359375 C 20.503906 -16.191406 21.203125 -16.066406 21.953125 -15.984375 C 22.710938 -15.898438 23.515625 -15.859375 24.359375 -15.859375 C 26.554688 -15.859375 28.65625 -16.144531 30.65625 -16.71875 C 32.664062 -17.300781 34.429688 -18.15625 35.953125 -19.28125 C 37.472656 -20.414062 38.675781 -21.832031 39.5625 -23.53125 C 40.457031 -25.238281 40.90625 -27.210938 40.90625 -29.453125 Z M 24.359375 -12.5625 C 23.515625 -12.5625 22.707031 -12.597656 21.9375 -12.671875 C 21.175781 -12.742188 20.460938 -12.863281 19.796875 -13.03125 L 19.546875 -3.078125 C 20.335938 -3.015625 21.144531 -2.953125 21.96875 -2.890625 C 22.800781 -2.828125 23.640625 -2.765625 24.484375 -2.703125 C 24.898438 -2.640625 25.25 -2.453125 25.53125 -2.140625 C 25.820312 -1.828125 25.96875 -1.457031 25.96875 -1.03125 C 25.96875 -0.550781 25.785156 -0.164062 25.421875 0.125 C 25.066406 0.414062 24.691406 0.5625 24.296875 0.5625 L 24.171875 0.5625 C 22.492188 0.394531 20.816406 0.269531 19.140625 0.1875 C 17.472656 0.101562 15.800781 0.0625 14.125 0.0625 C 12.46875 0.0625 10.828125 0.101562 9.203125 0.1875 C 7.578125 0.269531 5.945312 0.394531 4.3125 0.5625 L 4.1875 0.5625 C 3.726562 0.5625 3.332031 0.398438 3 0.078125 C 2.675781 -0.242188 2.515625 -0.613281 2.515625 -1.03125 C 2.515625 -1.457031 2.65625 -1.828125 2.9375 -2.140625 C 3.226562 -2.453125 3.582031 -2.640625 4 -2.703125 C 4.769531 -2.765625 5.546875 -2.828125 6.328125 -2.890625 C 7.117188 -2.953125 7.90625 -3.015625 8.6875 -3.078125 L 9.40625 -42.140625 C 7.851562 -41.890625 6.703125 -41.632812 5.953125 -41.375 C 5.210938 -41.125 4.820312 -41 4.78125 -41 C 4.53125 -40.894531 4.332031 -40.84375 4.1875 -40.84375 C 3.726562 -40.84375 3.332031 -41.019531 3 -41.375 C 2.675781 -41.738281 2.515625 -42.128906 2.515625 -42.546875 C 2.515625 -42.859375 2.601562 -43.160156 2.78125 -43.453125 C 2.957031 -43.753906 3.21875 -43.96875 3.5625 -44.09375 C 3.625 -44.113281 4.007812 -44.234375 4.71875 -44.453125 C 5.4375 -44.671875 6.46875 -44.914062 7.8125 -45.1875 C 9.164062 -45.46875 10.847656 -45.71875 12.859375 -45.9375 C 14.878906 -46.15625 17.234375 -46.265625 19.921875 -46.265625 C 20.378906 -46.265625 20.851562 -46.265625 21.34375 -46.265625 C 21.84375 -46.265625 22.332031 -46.242188 22.8125 -46.203125 C 24.632812 -46.140625 26.425781 -45.957031 28.1875 -45.65625 C 29.957031 -45.363281 31.640625 -44.921875 33.234375 -44.328125 C 34.828125 -43.734375 36.289062 -42.992188 37.625 -42.109375 C 38.957031 -41.222656 40.113281 -40.164062 41.09375 -38.9375 C 42.082031 -37.71875 42.847656 -36.320312 43.390625 -34.75 C 43.941406 -33.175781 44.21875 -31.410156 44.21875 -29.453125 C 44.21875 -27.609375 43.941406 -25.914062 43.390625 -24.375 C 42.847656 -22.832031 42.097656 -21.4375 41.140625 -20.1875 C 40.191406 -18.9375 39.078125 -17.832031 37.796875 -16.875 C 36.515625 -15.925781 35.132812 -15.128906 33.65625 -14.484375 C 32.175781 -13.847656 30.644531 -13.367188 29.0625 -13.046875 C 27.476562 -12.722656 25.910156 -12.5625 24.359375 -12.5625 Z M 24.359375 -12.5625 "/></g></g></g><g fill="#00c2cb" fill-opacity="1"><g transform="translate(123.170446, 117.148252)"><g><path d="M 31.5 -16.546875 C 30.726562 -18.921875 29.910156 -21.109375 29.046875 -23.109375 C 28.179688 -25.117188 27.332031 -26.925781 26.5 -28.53125 C 25.675781 -30.132812 24.890625 -31.539062 24.140625 -32.75 C 23.398438 -33.957031 22.769531 -34.945312 22.25 -35.71875 C 20.300781 -32.40625 18.554688 -29.171875 17.015625 -26.015625 C 15.472656 -22.859375 14.101562 -19.703125 12.90625 -16.546875 C 14.582031 -16.359375 16.195312 -16.207031 17.75 -16.09375 C 19.300781 -15.976562 20.84375 -15.921875 22.375 -15.921875 C 23.882812 -15.921875 25.390625 -15.976562 26.890625 -16.09375 C 28.390625 -16.207031 29.925781 -16.359375 31.5 -16.546875 Z M 52.96875 0.71875 C 52.925781 0.71875 52.882812 0.710938 52.84375 0.703125 C 52.800781 0.691406 52.757812 0.664062 52.71875 0.625 C 50.800781 0.332031 48.914062 0.125 47.0625 0 C 45.207031 -0.125 43.359375 -0.1875 41.515625 -0.1875 C 39.679688 -0.1875 37.878906 -0.125 36.109375 0 C 34.335938 0.125 32.570312 0.332031 30.8125 0.625 C 30.769531 0.664062 30.726562 0.691406 30.6875 0.703125 C 30.644531 0.710938 30.601562 0.71875 30.5625 0.71875 C 30.09375 0.71875 29.695312 0.539062 29.375 0.1875 C 29.050781 -0.164062 28.890625 -0.550781 28.890625 -0.96875 C 28.890625 -1.351562 29.019531 -1.703125 29.28125 -2.015625 C 29.539062 -2.328125 29.882812 -2.515625 30.3125 -2.578125 C 31.144531 -2.742188 31.988281 -2.875 32.84375 -2.96875 C 33.707031 -3.0625 34.59375 -3.160156 35.5 -3.265625 C 35.394531 -3.671875 35.269531 -4.171875 35.125 -4.765625 C 34.976562 -5.367188 34.78125 -6.078125 34.53125 -6.890625 C 34.289062 -7.710938 34.007812 -8.660156 33.6875 -9.734375 C 33.363281 -10.816406 32.984375 -12.039062 32.546875 -13.40625 C 30.753906 -13.15625 29.03125 -12.960938 27.375 -12.828125 C 25.71875 -12.691406 24.050781 -12.625 22.375 -12.625 C 20.675781 -12.625 18.957031 -12.691406 17.21875 -12.828125 C 15.476562 -12.960938 13.648438 -13.15625 11.734375 -13.40625 C 10.628906 -10.09375 9.726562 -6.8125 9.03125 -3.5625 C 10.332031 -3.519531 11.640625 -3.414062 12.953125 -3.25 C 14.265625 -3.09375 15.601562 -2.867188 16.96875 -2.578125 C 17.34375 -2.515625 17.648438 -2.328125 17.890625 -2.015625 C 18.128906 -1.703125 18.25 -1.351562 18.25 -0.96875 C 18.25 -0.488281 18.066406 -0.0859375 17.703125 0.234375 C 17.335938 0.554688 16.953125 0.71875 16.546875 0.71875 C 16.484375 0.71875 16.429688 0.703125 16.390625 0.671875 C 16.347656 0.640625 16.296875 0.625 16.234375 0.625 C 14.847656 0.332031 13.488281 0.113281 12.15625 -0.03125 C 10.832031 -0.175781 9.507812 -0.25 8.1875 -0.25 C 6.882812 -0.25 5.601562 -0.175781 4.34375 -0.03125 C 3.082031 0.113281 1.800781 0.332031 0.5 0.625 C 0.4375 0.625 0.382812 0.640625 0.34375 0.671875 C 0.300781 0.703125 0.25 0.71875 0.1875 0.71875 C -0.289062 0.71875 -0.6875 0.550781 -1 0.21875 C -1.320312 -0.113281 -1.484375 -0.507812 -1.484375 -0.96875 C -1.484375 -1.351562 -1.363281 -1.691406 -1.125 -1.984375 C -0.894531 -2.273438 -0.582031 -2.472656 -0.1875 -2.578125 C 0.757812 -2.804688 1.707031 -2.984375 2.65625 -3.109375 C 3.613281 -3.234375 4.597656 -3.34375 5.609375 -3.4375 C 6.316406 -6.894531 7.25 -10.351562 8.40625 -13.8125 C 9.5625 -17.28125 10.941406 -20.78125 12.546875 -24.3125 C 14.148438 -27.84375 15.988281 -31.429688 18.0625 -35.078125 C 20.144531 -38.734375 22.484375 -42.492188 25.078125 -46.359375 C 25.265625 -46.609375 25.476562 -46.785156 25.71875 -46.890625 C 25.96875 -46.992188 26.207031 -47.046875 26.4375 -47.046875 C 26.6875 -47.046875 26.925781 -47 27.15625 -46.90625 C 27.382812 -46.8125 27.570312 -46.671875 27.71875 -46.484375 C 32.125 -40.859375 35.90625 -34.484375 39.0625 -27.359375 C 42.226562 -20.242188 44.828125 -12.238281 46.859375 -3.34375 C 49.003906 -3.144531 51.132812 -2.890625 53.25 -2.578125 C 53.664062 -2.515625 54.003906 -2.328125 54.265625 -2.015625 C 54.535156 -1.703125 54.671875 -1.351562 54.671875 -0.96875 C 54.671875 -0.507812 54.484375 -0.113281 54.109375 0.21875 C 53.742188 0.550781 53.363281 0.71875 52.96875 0.71875 Z M 52.96875 0.71875 "/></g></g></g><g fill="#00c2cb" fill-opacity="1"><g transform="translate(171.231686, 117.148252)"><g><path d="M 52.96875 -45.125 C 52.96875 -44.539062 52.835938 -44.082031 52.578125 -43.75 C 52.328125 -43.425781 52.023438 -43.210938 51.671875 -43.109375 C 50.515625 -42.878906 49.398438 -42.691406 48.328125 -42.546875 C 47.265625 -42.398438 46.195312 -42.285156 45.125 -42.203125 C 45.019531 -41.253906 44.867188 -39.691406 44.671875 -37.515625 C 44.472656 -35.347656 44.28125 -32.6875 44.09375 -29.53125 C 43.90625 -26.375 43.738281 -22.789062 43.59375 -18.78125 C 43.445312 -14.78125 43.375 -10.472656 43.375 -5.859375 L 43.375 -2.765625 C 44.414062 -2.765625 45.453125 -2.738281 46.484375 -2.6875 C 47.515625 -2.632812 48.582031 -2.554688 49.6875 -2.453125 C 50.175781 -2.347656 50.546875 -2.132812 50.796875 -1.8125 C 51.046875 -1.488281 51.171875 -1.09375 51.171875 -0.625 C 51.128906 -0.1875 50.945312 0.164062 50.625 0.4375 C 50.300781 0.707031 49.925781 0.84375 49.5 0.84375 L 49.375 0.84375 C 48.175781 0.738281 47 0.65625 45.84375 0.59375 C 44.695312 0.53125 43.554688 0.5 42.421875 0.5 C 41.285156 0.5 40.160156 0.53125 39.046875 0.59375 C 37.941406 0.65625 36.851562 0.738281 35.78125 0.84375 L 35.5625 0.84375 C 35.082031 0.84375 34.679688 0.675781 34.359375 0.34375 C 34.046875 0.0078125 33.890625 -0.363281 33.890625 -0.78125 C 33.890625 -1.207031 34.03125 -1.578125 34.3125 -1.890625 C 34.601562 -2.203125 34.957031 -2.390625 35.375 -2.453125 C 36.164062 -2.515625 36.953125 -2.570312 37.734375 -2.625 C 38.515625 -2.675781 39.300781 -2.722656 40.09375 -2.765625 L 40.09375 -5.859375 C 40.09375 -10.453125 40.15625 -14.75 40.28125 -18.75 C 38.5625 -18.582031 36.84375 -18.46875 35.125 -18.40625 C 33.40625 -18.34375 31.679688 -18.3125 29.953125 -18.3125 C 28.210938 -18.3125 26.507812 -18.34375 24.84375 -18.40625 C 23.175781 -18.46875 21.535156 -18.582031 19.921875 -18.75 L 19.546875 -2.828125 C 20.335938 -2.765625 21.144531 -2.703125 21.96875 -2.640625 C 22.800781 -2.578125 23.640625 -2.515625 24.484375 -2.453125 C 24.898438 -2.390625 25.25 -2.203125 25.53125 -1.890625 C 25.820312 -1.578125 25.96875 -1.207031 25.96875 -0.78125 C 25.96875 -0.300781 25.785156 0.0859375 25.421875 0.390625 C 25.066406 0.691406 24.691406 0.84375 24.296875 0.84375 L 24.171875 0.84375 C 22.492188 0.675781 20.816406 0.546875 19.140625 0.453125 C 17.472656 0.359375 15.800781 0.3125 14.125 0.3125 C 12.46875 0.3125 10.828125 0.359375 9.203125 0.453125 C 7.578125 0.546875 5.945312 0.675781 4.3125 0.84375 L 4.1875 0.84375 C 3.707031 0.84375 3.304688 0.675781 2.984375 0.34375 C 2.671875 0.0078125 2.515625 -0.363281 2.515625 -0.78125 C 2.515625 -1.207031 2.65625 -1.578125 2.9375 -1.890625 C 3.226562 -2.203125 3.582031 -2.390625 4 -2.453125 C 4.769531 -2.515625 5.546875 -2.578125 6.328125 -2.640625 C 7.117188 -2.703125 7.90625 -2.765625 8.6875 -2.828125 L 9.40625 -42.546875 C 7.601562 -42.671875 5.78125 -42.859375 3.9375 -43.109375 C 3.507812 -43.171875 3.164062 -43.359375 2.90625 -43.671875 C 2.644531 -43.992188 2.515625 -44.34375 2.515625 -44.71875 C 2.515625 -45.257812 2.703125 -45.675781 3.078125 -45.96875 C 3.460938 -46.269531 3.832031 -46.421875 4.1875 -46.421875 L 4.375 -46.421875 C 6.59375 -46.085938 8.78125 -45.847656 10.9375 -45.703125 C 13.101562 -45.566406 15.257812 -45.5 17.40625 -45.5 C 18.707031 -45.5 19.984375 -45.519531 21.234375 -45.5625 C 22.492188 -45.613281 23.753906 -45.703125 25.015625 -45.828125 L 25.140625 -45.828125 C 25.566406 -45.828125 25.941406 -45.679688 26.265625 -45.390625 C 26.585938 -45.109375 26.769531 -44.757812 26.8125 -44.34375 C 26.8125 -43.820312 26.660156 -43.398438 26.359375 -43.078125 C 26.054688 -42.765625 25.691406 -42.585938 25.265625 -42.546875 C 24.492188 -42.484375 23.71875 -42.421875 22.9375 -42.359375 C 22.164062 -42.296875 21.367188 -42.242188 20.546875 -42.203125 L 20.046875 -22.09375 C 21.597656 -21.90625 23.210938 -21.773438 24.890625 -21.703125 C 26.566406 -21.628906 28.253906 -21.59375 29.953125 -21.59375 C 31.722656 -21.59375 33.472656 -21.625 35.203125 -21.6875 C 36.929688 -21.75 38.664062 -21.863281 40.40625 -22.03125 C 40.488281 -24.507812 40.597656 -26.804688 40.734375 -28.921875 C 40.867188 -31.035156 41.003906 -32.945312 41.140625 -34.65625 C 41.285156 -36.375 41.414062 -37.851562 41.53125 -39.09375 C 41.644531 -40.34375 41.742188 -41.335938 41.828125 -42.078125 C 40.984375 -42.117188 40.15625 -42.171875 39.34375 -42.234375 C 38.539062 -42.296875 37.742188 -42.398438 36.953125 -42.546875 C 36.546875 -42.609375 36.210938 -42.789062 35.953125 -43.09375 C 35.691406 -43.40625 35.5625 -43.757812 35.5625 -44.15625 C 35.5625 -44.675781 35.742188 -45.082031 36.109375 -45.375 C 36.472656 -45.675781 36.835938 -45.828125 37.203125 -45.828125 L 37.453125 -45.828125 C 38.285156 -45.660156 39.125 -45.539062 39.96875 -45.46875 C 40.8125 -45.40625 41.671875 -45.375 42.546875 -45.375 C 43.867188 -45.375 45.226562 -45.457031 46.625 -45.625 C 48.019531 -45.800781 49.472656 -46.066406 50.984375 -46.421875 L 51.359375 -46.421875 C 51.753906 -46.421875 52.09375 -46.300781 52.375 -46.0625 C 52.664062 -45.820312 52.863281 -45.507812 52.96875 -45.125 Z M 52.96875 -45.125 "/></g></g></g><g fill="#00c2cb" fill-opacity="1"><g transform="translate(220.331315, 117.148252)"><g><path d="M 45.25 -22.375 C 45.25 -23.800781 45.0625 -25.296875 44.6875 -26.859375 C 44.3125 -28.421875 43.78125 -29.953125 43.09375 -31.453125 C 42.414062 -32.953125 41.597656 -34.378906 40.640625 -35.734375 C 39.691406 -37.085938 38.644531 -38.269531 37.5 -39.28125 C 36.351562 -40.300781 35.128906 -41.109375 33.828125 -41.703125 C 32.523438 -42.304688 31.191406 -42.609375 29.828125 -42.609375 C 27.984375 -42.609375 26.316406 -42.332031 24.828125 -41.78125 C 23.335938 -41.238281 22.007812 -40.5 20.84375 -39.5625 C 19.6875 -38.632812 18.675781 -37.53125 17.8125 -36.25 C 16.945312 -34.96875 16.238281 -33.597656 15.6875 -32.140625 C 15.132812 -30.679688 14.71875 -29.160156 14.4375 -27.578125 C 14.164062 -25.992188 14.03125 -24.425781 14.03125 -22.875 C 14.03125 -21.175781 14.128906 -19.476562 14.328125 -17.78125 C 14.535156 -16.082031 14.875 -14.453125 15.34375 -12.890625 C 15.8125 -11.328125 16.414062 -9.867188 17.15625 -8.515625 C 17.90625 -7.160156 18.828125 -5.984375 19.921875 -4.984375 C 21.015625 -3.992188 22.289062 -3.210938 23.75 -2.640625 C 25.207031 -2.078125 26.867188 -1.796875 28.734375 -1.796875 C 30.222656 -1.796875 31.664062 -2.085938 33.0625 -2.671875 C 34.457031 -3.265625 35.765625 -4.054688 36.984375 -5.046875 C 38.210938 -6.046875 39.335938 -7.222656 40.359375 -8.578125 C 41.378906 -9.929688 42.25 -11.367188 42.96875 -12.890625 C 43.695312 -14.410156 44.257812 -15.984375 44.65625 -17.609375 C 45.050781 -19.234375 45.25 -20.820312 45.25 -22.375 Z M 48.53125 -22.375 C 48.53125 -20.175781 48.25 -18.050781 47.6875 -16 C 47.132812 -13.957031 46.359375 -12.03125 45.359375 -10.21875 C 44.367188 -8.414062 43.171875 -6.769531 41.765625 -5.28125 C 40.359375 -3.789062 38.8125 -2.507812 37.125 -1.4375 C 35.4375 -0.375 33.625 0.445312 31.6875 1.03125 C 29.757812 1.625 27.769531 1.921875 25.71875 1.921875 C 23.632812 1.921875 21.625 1.628906 19.6875 1.046875 C 17.75 0.472656 15.9375 -0.335938 14.25 -1.390625 C 12.570312 -2.453125 11.035156 -3.722656 9.640625 -5.203125 C 8.242188 -6.679688 7.050781 -8.316406 6.0625 -10.109375 C 5.082031 -11.910156 4.316406 -13.847656 3.765625 -15.921875 C 3.222656 -18.003906 2.953125 -20.15625 2.953125 -22.375 C 2.953125 -24.601562 3.222656 -26.753906 3.765625 -28.828125 C 4.316406 -30.898438 5.082031 -32.832031 6.0625 -34.625 C 7.050781 -36.425781 8.242188 -38.066406 9.640625 -39.546875 C 11.035156 -41.023438 12.570312 -42.289062 14.25 -43.34375 C 15.9375 -44.40625 17.75 -45.222656 19.6875 -45.796875 C 21.625 -46.378906 23.632812 -46.671875 25.71875 -46.671875 C 27.914062 -46.671875 30.003906 -46.351562 31.984375 -45.71875 C 33.972656 -45.09375 35.8125 -44.222656 37.5 -43.109375 C 39.1875 -42.003906 40.710938 -40.6875 42.078125 -39.15625 C 43.441406 -37.625 44.597656 -35.953125 45.546875 -34.140625 C 46.503906 -32.335938 47.238281 -30.4375 47.75 -28.4375 C 48.269531 -26.445312 48.53125 -24.425781 48.53125 -22.375 Z M 48.53125 -22.375 "/></g></g></g></svg>