<svg xmlns="http://www.w3.org/2000/svg" xmlns:xlink="http://www.w3.org/1999/xlink" width="1080" zoomAndPan="magnify" viewBox="0 0 810 1012.49997" height="1350" preserveAspectRatio="xMidYMid meet" version="1.0"><defs><clipPath id="1ee57e46ec"><path d="M 0.199219 0 L 809.800781 0 L 809.800781 1012 L 0.199219 1012 Z M 0.199219 0 " clip-rule="nonzero"/></clipPath><clipPath id="01abd1b257"><path d="M 306.371094 297.363281 L 503.523438 297.363281 L 503.523438 714.90625 L 306.371094 714.90625 Z M 306.371094 297.363281 " clip-rule="nonzero"/></clipPath></defs><g clip-path="url(#1ee57e46ec)"><path fill="#03989e" d="M 0.199219 0 L 809.800781 0 L 809.800781 1019.496094 L 0.199219 1019.496094 Z M 0.199219 0 " fill-opacity="1" fill-rule="nonzero"/><path fill="#03989e" d="M 0.199219 0 L 809.800781 0 L 809.800781 1012 L 0.199219 1012 Z M 0.199219 0 " fill-opacity="1" fill-rule="nonzero"/><path fill="#03989e" d="M 0.199219 0 L 809.800781 0 L 809.800781 1012 L 0.199219 1012 Z M 0.199219 0 " fill-opacity="1" fill-rule="nonzero"/></g><g clip-path="url(#01abd1b257)"><path fill="#e8c6b6" d="M 458.09375 366.574219 L 503.566406 366.574219 L 503.566406 297.90625 L 445.441406 297.90625 L 445.441406 298.160156 C 369.085938 300.929688 353.414062 343.832031 352.027344 389.03125 L 351.882812 389.03125 L 351.882812 436.703125 L 306.40625 436.703125 L 306.40625 505.414062 L 351.882812 505.414062 L 351.882812 714.382812 L 433.511719 714.382812 L 433.511719 505.414062 L 492.015625 505.414062 L 503.566406 436.703125 L 433.511719 436.703125 L 433.511719 394.0625 C 433.511719 378.894531 443.617188 366.574219 458.09375 366.574219 Z M 458.09375 366.574219 " fill-opacity="1" fill-rule="nonzero"/></g></svg>