<svg xmlns="http://www.w3.org/2000/svg" xmlns:xlink="http://www.w3.org/1999/xlink" width="1080" zoomAndPan="magnify" viewBox="0 0 810 1012.49997" height="1350" preserveAspectRatio="xMidYMid meet" version="1.0"><defs><clipPath id="659cbad8f5"><path d="M 0.199219 0 L 809.800781 0 L 809.800781 1012 L 0.199219 1012 Z M 0.199219 0 " clip-rule="nonzero"/></clipPath><clipPath id="ed756540c0"><path d="M 260.757812 361.757812 L 549.363281 361.757812 L 549.363281 650.363281 L 260.757812 650.363281 Z M 260.757812 361.757812 " clip-rule="nonzero"/></clipPath></defs><g clip-path="url(#659cbad8f5)"><path fill="#03989e" d="M 0.199219 0 L 809.800781 0 L 809.800781 1019.496094 L 0.199219 1019.496094 Z M 0.199219 0 " fill-opacity="1" fill-rule="nonzero"/><path fill="#03989e" d="M 0.199219 0 L 809.800781 0 L 809.800781 1012 L 0.199219 1012 Z M 0.199219 0 " fill-opacity="1" fill-rule="nonzero"/><path fill="#03989e" d="M 0.199219 0 L 809.800781 0 L 809.800781 1012 L 0.199219 1012 Z M 0.199219 0 " fill-opacity="1" fill-rule="nonzero"/></g><g clip-path="url(#ed756540c0)"><path fill="#e8c6b6" d="M 476.8125 361.871094 L 333.082031 361.871094 C 293.257812 361.871094 260.757812 394.371094 260.757812 434.195312 L 260.757812 578.15625 C 260.757812 617.75 293.257812 650.25 333.082031 650.25 L 477.042969 650.25 C 516.867188 650.25 549.363281 617.75 549.363281 577.925781 L 549.363281 434.195312 C 549.136719 394.371094 516.636719 361.871094 476.8125 361.871094 Z M 356.882812 595.320312 L 315.6875 595.320312 L 315.6875 476.308594 L 356.882812 476.308594 Z M 336.054688 458 C 324.382812 458 315 448.613281 315 436.941406 C 315 425.269531 324.382812 415.886719 336.054688 415.886719 C 347.730469 415.886719 357.113281 425.269531 357.113281 436.941406 C 356.882812 448.613281 347.5 458 336.054688 458 Z M 494.207031 595.320312 L 459.875 595.320312 L 459.875 537.644531 C 459.875 523.683594 458.046875 505.832031 439.050781 505.832031 C 419.59375 505.832031 416.390625 520.9375 416.390625 536.730469 L 416.390625 595.320312 L 382.058594 595.320312 L 382.058594 476.308594 L 414.101562 476.308594 L 414.101562 492.328125 L 415.015625 492.328125 C 420.050781 483.175781 431.726562 476.078125 450.035156 476.078125 C 487.796875 476.078125 494.4375 497.820312 494.4375 530.09375 L 494.4375 595.320312 Z M 494.207031 595.320312 " fill-opacity="1" fill-rule="nonzero"/></g></svg>