<?xml version="1.0" encoding="UTF-8" standalone="no"?><svg xmlns="http://www.w3.org/2000/svg" xmlns:xlink="http://www.w3.org/1999/xlink" fill="#000000" height="144.9" preserveAspectRatio="xMidYMid meet" version="1" viewBox="0.0 0.0 144.9 144.9" width="144.9" zoomAndPan="magnify"><g id="change1_1"><path d="M 100.910156 88.609375 C 101.359375 83.367188 101.597656 77.957031 101.597656 72.445312 C 101.597656 66.429688 101.316406 60.527344 100.78125 54.839844 L 132.730469 54.839844 C 134.367188 60.429688 135.261719 66.335938 135.261719 72.445312 C 135.261719 78.035156 134.515625 83.449219 133.140625 88.609375 Z M 89.054688 133.019531 C 90.832031 130.054688 92.5625 126.402344 94.183594 121.898438 C 96.660156 115.011719 98.554688 106.96875 99.8125 98.234375 L 129.699219 98.234375 C 122.066406 115.113281 107.195312 128.035156 89.054688 133.019531 Z M 72.441406 135.265625 C 66.453125 135.265625 58.425781 121.417969 54.816406 98.234375 L 90.070312 98.234375 C 86.457031 121.417969 78.433594 135.265625 72.441406 135.265625 Z M 15.183594 98.234375 L 45.074219 98.234375 C 46.328125 106.96875 48.222656 115.011719 50.703125 121.898438 C 52.324219 126.402344 54.054688 130.054688 55.832031 133.019531 C 37.691406 128.039062 22.816406 115.113281 15.183594 98.234375 Z M 9.625 72.445312 C 9.625 66.335938 10.519531 60.429688 12.15625 54.839844 L 44.101562 54.839844 C 43.570312 60.527344 43.289062 66.429688 43.289062 72.445312 C 43.289062 77.957031 43.527344 83.367188 43.972656 88.609375 L 11.742188 88.609375 C 10.367188 83.449219 9.625 78.035156 9.625 72.445312 Z M 55.832031 11.875 C 54.054688 14.839844 52.324219 18.492188 50.703125 22.996094 C 48.363281 29.5 46.539062 37.035156 45.285156 45.214844 L 15.839844 45.214844 C 23.65625 29.035156 38.210938 16.714844 55.832031 11.875 Z M 72.441406 9.628906 C 78.304688 9.628906 86.117188 22.90625 89.832031 45.214844 L 55.054688 45.214844 C 58.769531 22.90625 66.578125 9.628906 72.441406 9.628906 Z M 91.972656 72.445312 C 91.972656 78.15625 91.710938 83.550781 91.246094 88.609375 L 53.636719 88.609375 C 53.175781 83.550781 52.914062 78.15625 52.914062 72.445312 C 52.914062 66.191406 53.226562 60.308594 53.777344 54.839844 L 91.109375 54.839844 C 91.660156 60.308594 91.972656 66.191406 91.972656 72.445312 Z M 129.042969 45.214844 L 99.601562 45.214844 C 98.347656 37.035156 96.523438 29.5 94.183594 22.996094 C 92.5625 18.492188 90.832031 14.839844 89.054688 11.875 C 106.675781 16.714844 121.230469 29.035156 129.042969 45.214844 Z M 72.441406 0.00390625 C 32.496094 0.00390625 0 32.503906 0 72.445312 C 0 112.390625 32.496094 144.890625 72.441406 144.890625 C 112.386719 144.890625 144.886719 112.390625 144.886719 72.445312 C 144.886719 32.503906 112.386719 0.00390625 72.441406 0.00390625" fill="#000"/></g></svg>